<?xml version="1.0" encoding="UTF-8" standalone="no"?>
<!-- Created with Inkscape (http://www.inkscape.org/) -->

<svg
   xmlns:dc="http://purl.org/dc/elements/1.1/"
   xmlns:cc="http://creativecommons.org/ns#"
   xmlns:rdf="http://www.w3.org/1999/02/22-rdf-syntax-ns#"
   xmlns:svg="http://www.w3.org/2000/svg"
   xmlns="http://www.w3.org/2000/svg"
   xmlns:sodipodi="http://sodipodi.sourceforge.net/DTD/sodipodi-0.dtd"
   xmlns:inkscape="http://www.inkscape.org/namespaces/inkscape"
   width="297mm"
   height="210mm"
   viewBox="0 0 297 210"
   version="1.1"
   id="svg4225"
   inkscape:version="0.92.3 (2405546, 2018-03-11)"
   sodipodi:docname="logo-normans.design.svg">
  <defs
     id="defs4219" />
  <sodipodi:namedview
     id="base"
     pagecolor="#ffffff"
     bordercolor="#666666"
     borderopacity="1.0"
     inkscape:pageopacity="0.0"
     inkscape:pageshadow="2"
     inkscape:zoom="0.35"
     inkscape:cx="-108.57143"
     inkscape:cy="560"
     inkscape:document-units="mm"
     inkscape:current-layer="layer1"
     showgrid="false"
     inkscape:window-width="1920"
     inkscape:window-height="1025"
     inkscape:window-x="0"
     inkscape:window-y="27"
     inkscape:window-maximized="1" />
  <metadata
     id="metadata4222">
    <rdf:RDF>
      <cc:Work
         rdf:about="">
        <dc:format>image/svg+xml</dc:format>
        <dc:type
           rdf:resource="http://purl.org/dc/dcmitype/StillImage" />
        <dc:title></dc:title>
      </cc:Work>
    </rdf:RDF>
  </metadata>
  <g
     inkscape:label="Layer 1"
     inkscape:groupmode="layer"
     id="layer1"
     transform="translate(0,-87)">
    <g
       id="g2800"
       transform="matrix(4.4731685,0,0,4.4731685,-105.02027,-341.33772)">
      <rect
         y="103.2403"
         x="25.138605"
         height="27.551701"
         width="62.249321"
         id="rect1565-8-7-0"
         style="fill:#fffcf6;fill-opacity:0.64705882;stroke:none;stroke-width:0.7234661;stroke-linejoin:miter;stroke-miterlimit:4;stroke-dasharray:none;stroke-opacity:1" />
      <path
         d="m 30.610713,119.95796 c -0.04233,0 -0.07408,0 -0.105833,0 -0.423333,0 -0.60325,0.0635 -0.60325,0.35983 0,0.24342 0.137583,0.37042 0.433917,0.37042 0.137583,0 0.232833,0 0.275166,0 h 0.941917 c 0.391583,0 0.550333,-0.0212 0.550333,-0.37042 0,-0.28575 -0.137583,-0.37042 -0.497416,-0.37042 -0.0635,0 -0.137584,0.0106 -0.22225,0.0106 v -2.14842 c 0,-0.77258 0.719666,-1.23825 1.344083,-1.23825 0.677333,0 1.058333,0.41275 1.058333,1.23825 v 2.14842 c -0.0635,0 -0.116417,0 -0.169333,0 -0.370417,0 -0.518583,0.0741 -0.518583,0.35983 0,0.33867 0.148166,0.37042 0.518583,0.37042 h 1.143 c 0.370416,0 0.550333,-0.0741 0.550333,-0.37042 0,-0.26458 -0.15875,-0.35983 -0.486833,-0.35983 -0.07408,0 -0.15875,0 -0.232834,0 v -2.33892 c 0,-1.19592 -0.6985,-1.8415 -1.682749,-1.8415 -0.53975,0 -1.016,0.23283 -1.513417,0.6985 v -0.34925 c 0,-0.127 -0.09525,-0.21167 -0.296333,-0.21167 h -0.486834 c -0.47625,0 -0.709083,0 -0.709083,0.35984 0,0.26458 0.148167,0.37041 0.47625,0.37041 0.07408,0 0.15875,0 0.232833,0 z"
         style="font-style:normal;font-variant:normal;font-weight:normal;font-stretch:normal;font-size:medium;line-height:1.25;font-family:'Courier 10 Pitch';-inkscape-font-specification:'Courier 10 Pitch';letter-spacing:0px;word-spacing:0px;fill:#000000;fill-opacity:1;stroke:none;stroke-width:0.26458332"
         id="path1349"
         inkscape:connector-curvature="0" />
      <path
         d="m 41.602166,118.30696 c 0,-1.42875 -1.058333,-2.50825 -2.69875,-2.50825 -1.640417,0 -2.709333,1.06891 -2.709333,2.50825 0,1.43933 1.068916,2.50825 2.709333,2.50825 1.640417,0 2.69875,-1.06892 2.69875,-2.50825 z m -2.69875,1.78858 c -1.068917,0 -1.80975,-0.762 -1.80975,-1.78858 0,-1.02659 0.740833,-1.79917 1.80975,-1.79917 1.068917,0 1.80975,0.77258 1.80975,1.79917 0,1.03716 -0.740833,1.78858 -1.80975,1.78858 z"
         style="font-style:normal;font-variant:normal;font-weight:normal;font-stretch:normal;font-size:medium;line-height:1.25;font-family:'Courier 10 Pitch';-inkscape-font-specification:'Courier 10 Pitch';letter-spacing:0px;word-spacing:0px;fill:#000000;fill-opacity:1;stroke:none;stroke-width:0.26458332"
         id="path1351"
         inkscape:connector-curvature="0" />
      <path
         d="m 44.761952,119.95796 v -2.13784 c 0.687917,-0.78316 1.27,-1.19591 1.8415,-1.19591 0.402167,0 0.624417,0.3175 0.899583,0.3175 0.22225,0 0.455084,-0.23284 0.455084,-0.48684 0,-0.381 -0.381,-0.66675 -1.026584,-0.66675 -0.8255,0 -1.524,0.40217 -2.169583,1.21709 v -0.87842 c 0,-0.14817 -0.09525,-0.21167 -0.28575,-0.21167 h -1.17475 c -0.275166,0 -0.41275,0.11642 -0.41275,0.35984 0,0.26458 0.148167,0.37041 0.486834,0.37041 0.05292,0 0.148166,0 0.264583,0 h 0.34925 v 3.31259 h -0.910167 c -0.28575,0 -0.433916,0.11641 -0.433916,0.35983 0,0.24342 0.148166,0.37042 0.423333,0.37042 h 3.376083 c 0.306917,0 0.423333,-0.0741 0.423333,-0.37042 0,-0.254 -0.127,-0.35983 -0.391583,-0.35983 z"
         style="font-style:normal;font-variant:normal;font-weight:normal;font-stretch:normal;font-size:medium;line-height:1.25;font-family:'Courier 10 Pitch';-inkscape-font-specification:'Courier 10 Pitch';letter-spacing:0px;word-spacing:0px;fill:#000000;fill-opacity:1;stroke:none;stroke-width:0.26458332"
         id="path1353"
         inkscape:connector-curvature="0" />
      <path
         d="m 53.520323,117.80954 v 2.36008 c 0,0.33867 0.148166,0.51859 0.433916,0.51859 h 0.624417 c 0.243416,0 0.370416,-0.127 0.370416,-0.37042 0,-0.29633 -0.148166,-0.35983 -0.53975,-0.35983 -0.03175,0 -0.0635,0 -0.09525,0 v -2.33892 c 0,-1.2065 -0.3175,-1.8415 -1.269999,-1.8415 -0.497417,0 -0.867834,0.21167 -1.153584,0.635 -0.148166,-0.42333 -0.465666,-0.635 -0.941916,-0.635 -0.402167,0 -0.719667,0.13758 -0.994834,0.4445 -0.02117,-0.254 -0.07408,-0.30692 -0.296333,-0.30692 h -0.79375 c -0.275167,0 -0.402167,0.11642 -0.402167,0.35984 0,0.26458 0.148167,0.37041 0.47625,0.37041 0.07408,0 0.15875,0 0.232834,0 v 3.31259 c -0.04233,0 -0.07408,0 -0.105834,0 -0.423333,0 -0.60325,0.0635 -0.60325,0.35983 0,0.24342 0.127,0.37042 0.402167,0.37042 h 1.375833 c 0.306917,0 0.423334,-0.0741 0.423334,-0.37042 0,-0.28575 -0.137584,-0.37042 -0.497417,-0.37042 -0.0635,0 -0.137583,0.0106 -0.22225,0.0106 v -2.84692 c 0.1905,-0.35983 0.4445,-0.53975 0.762,-0.53975 0.391583,0 0.677333,0.30692 0.677333,0.83608 0,0.0635 0,0.20109 0,0.40217 v 2.18017 c 0,0.0529 0,0.0953 0,0.13758 0,0.40217 0.02117,0.56092 0.359834,0.56092 h 0.656166 c 0.243417,0 0.359834,-0.127 0.359834,-0.37042 0,-0.29633 -0.148167,-0.35983 -0.53975,-0.35983 -0.03175,0 -0.0635,0 -0.09525,0 v -2.14842 c 0,-0.8255 0.359833,-1.23825 0.836083,-1.23825 0.518583,0 0.560917,0.45508 0.560917,1.23825 z"
         style="font-style:normal;font-variant:normal;font-weight:normal;font-stretch:normal;font-size:medium;line-height:1.25;font-family:'Courier 10 Pitch';-inkscape-font-specification:'Courier 10 Pitch';letter-spacing:0px;word-spacing:0px;fill:#000000;fill-opacity:1;stroke:none;stroke-width:0.26458332"
         id="path1355"
         inkscape:connector-curvature="0" />
      <path
         d="m 68.809932,119.95796 c -0.04233,0 -0.07408,0 -0.105833,0 -0.423334,0 -0.60325,0.0635 -0.60325,0.35983 0,0.24342 0.137583,0.37042 0.433916,0.37042 0.137584,0 0.232834,0 0.275167,0 h 0.941917 c 0.391583,0 0.550333,-0.0212 0.550333,-0.37042 0,-0.28575 -0.137583,-0.37042 -0.497417,-0.37042 -0.0635,0 -0.137583,0.0106 -0.22225,0.0106 v -2.14842 c 0,-0.77258 0.719667,-1.23825 1.344084,-1.23825 0.677333,0 1.058333,0.41275 1.058333,1.23825 v 2.14842 c -0.0635,0 -0.116417,0 -0.169333,0 -0.370417,0 -0.518584,0.0741 -0.518584,0.35983 0,0.33867 0.148167,0.37042 0.518584,0.37042 h 1.143 c 0.370416,0 0.550333,-0.0741 0.550333,-0.37042 0,-0.26458 -0.15875,-0.35983 -0.486833,-0.35983 -0.07408,0 -0.15875,0 -0.232834,0 v -2.33892 c 0,-1.19592 -0.6985,-1.8415 -1.68275,-1.8415 -0.53975,0 -1.016,0.23283 -1.513416,0.6985 v -0.34925 c 0,-0.127 -0.09525,-0.21167 -0.296334,-0.21167 h -0.486833 c -0.47625,0 -0.709083,0 -0.709083,0.35984 0,0.26458 0.148166,0.37041 0.47625,0.37041 0.07408,0 0.15875,0 0.232833,0 z"
         style="font-style:normal;font-variant:normal;font-weight:normal;font-stretch:normal;font-size:medium;line-height:1.25;font-family:'Courier 10 Pitch';-inkscape-font-specification:'Courier 10 Pitch';letter-spacing:0px;word-spacing:0px;fill:#000000;fill-opacity:1;stroke:none;stroke-width:0.26458332"
         id="path1357"
         inkscape:connector-curvature="0" />
      <path
         d="m 74.837801,120.31779 c 0,0.32808 0.137583,0.49742 0.381,0.49742 0.116416,0 0.28575,-0.0847 0.529166,-0.24342 0.582083,0.14817 1.100667,0.23283 1.566333,0.23283 1.291167,0 2.021417,-0.64558 2.021417,-1.53458 0,-1.016 -0.709083,-1.41817 -2.074333,-1.44992 -1.016,-0.0212 -1.608667,-0.0741 -1.608667,-0.62441 0,-0.41275 0.391583,-0.762 1.0795,-0.762 0.53975,0 0.92075,0.127 1.312333,0.47625 0.306917,0.27516 0.41275,0.53975 0.645584,0.53975 0.254,0 0.34925,-0.17992 0.34925,-0.51859 v -0.60325 c 0,-0.34925 -0.116417,-0.51858 -0.34925,-0.51858 -0.275167,0 -0.381,0.20108 -0.529167,0.20108 -0.148167,0 -0.560917,-0.23283 -1.312333,-0.23283 -1.280583,0 -1.989667,0.59267 -1.989667,1.44992 0,0.92075 0.751417,1.42875 2.159,1.42875 0.148167,0 0.243417,0 0.296333,0 0.783167,0 1.164167,0.14816 1.164167,0.67733 0,0.46567 -0.465667,0.80433 -1.217083,0.80433 -0.6985,0 -1.291167,-0.254 -1.566334,-0.61383 -0.201083,-0.26458 -0.169333,-0.55033 -0.486833,-0.55033 -0.275166,0 -0.370416,0.14816 -0.370416,0.42333 z"
         style="font-style:normal;font-variant:normal;font-weight:normal;font-stretch:normal;font-size:medium;line-height:1.25;font-family:'Courier 10 Pitch';-inkscape-font-specification:'Courier 10 Pitch';letter-spacing:0px;word-spacing:0px;fill:#000000;fill-opacity:1;stroke:none;stroke-width:0.26458332"
         id="path1359"
         inkscape:connector-curvature="0" />
      <path
         d="m 48.863842,128.61402 c -0.232833,0 -0.389466,-0.1778 -0.389466,-0.4318 0,-0.41487 0.245533,-0.70697 0.541866,-0.70697 0.245534,0 0.397934,0.17357 0.397934,0.45297 0,0.38946 -0.249767,0.6858 -0.550334,0.6858 z m 0.7874,-1.84574 -0.122766,0.5334 c -0.1524,-0.1651 -0.338667,-0.24553 -0.563034,-0.24553 -0.588433,0 -1.0414,0.50377 -1.0414,1.14723 0,0.5461 0.2921,0.85937 0.745067,0.85937 0.2667,0 0.4953,-0.10583 0.6858,-0.32597 l -0.0381,0.16934 c 0,0.008 -0.0042,0.0169 -0.0042,0.0254 0,0.055 0.03387,0.0847 0.0889,0.0847 h 0.296333 c 0.198967,0 0.3048,-0.0974 0.3048,-0.27093 0,-0.11853 -0.08043,-0.1905 -0.1778,-0.1905 h -0.05503 l 0.465666,-2.15053 c 0,-0.008 0.0042,-0.0169 0.0042,-0.0254 0,-0.0423 -0.02963,-0.0677 -0.0889,-0.0677 h -0.630769 c -0.198967,0 -0.3048,0.1016 -0.3048,0.27094 0,0.127 0.07197,0.18626 0.211667,0.18626 z"
         style="font-style:italic;font-variant:normal;font-weight:bold;font-stretch:normal;font-size:4.23333311px;line-height:1.25;font-family:'Courier 10 Pitch';-inkscape-font-specification:'Courier 10 Pitch Bold Italic';letter-spacing:0px;word-spacing:0px;fill:#000000;fill-opacity:1;stroke:none;stroke-width:0.26458332"
         id="path1361"
         inkscape:connector-curvature="0" />
      <path
         d="m 51.037923,127.86472 c 0.08043,-0.254 0.3048,-0.39794 0.605367,-0.39794 0.2667,0 0.427567,0.13547 0.427567,0.33867 0,0.004 -0.0042,0.0254 -0.0042,0.0593 z m -0.02963,0.3175 h 1.202267 c 0.249766,0 0.385233,-0.0212 0.385233,-0.25824 0,-0.49953 -0.347133,-0.86783 -0.922867,-0.86783 -0.6985,0 -1.2065,0.5207 -1.2065,1.18533 0,0.49954 0.364067,0.8255 0.956734,0.8255 0.579966,0 1.058333,-0.26246 1.058333,-0.4953 0,-0.12276 -0.08043,-0.2032 -0.186267,-0.2032 -0.143933,0 -0.4064,0.27517 -0.817033,0.27517 -0.3048,0 -0.4699,-0.1524 -0.4699,-0.42333 0,-0.0127 0,-0.0254 0,-0.0381 z"
         style="font-style:italic;font-variant:normal;font-weight:bold;font-stretch:normal;font-size:4.23333311px;line-height:1.25;font-family:'Courier 10 Pitch';-inkscape-font-specification:'Courier 10 Pitch Bold Italic';letter-spacing:0px;word-spacing:0px;fill:#000000;fill-opacity:1;stroke:none;stroke-width:0.26458332"
         id="path1363"
         inkscape:connector-curvature="0" />
      <path
         d="m 53.427904,128.93998 c 0.211667,0.0847 0.414867,0.127 0.635,0.127 0.554567,0 0.893234,-0.2794 0.893234,-0.6604 0,-0.35136 -0.2159,-0.4826 -0.656167,-0.60536 -0.237067,-0.0635 -0.410633,-0.0804 -0.410633,-0.2286 0,-0.10584 0.118533,-0.1905 0.3175,-0.1905 0.173566,0 0.3175,0.0593 0.410633,0.15663 0.05503,0.055 0.09313,0.16087 0.237067,0.16087 0.09313,0 0.1524,-0.055 0.169333,-0.14394 l 0.06773,-0.31326 c 0.0042,-0.0254 0.0085,-0.0466 0.0085,-0.0677 0,-0.1016 -0.0635,-0.15663 -0.169333,-0.15663 -0.06773,0 -0.131234,0.0381 -0.1651,0.11853 -0.2159,-0.0593 -0.414867,-0.0889 -0.605367,-0.0889 -0.5207,0 -0.8255,0.254 -0.8255,0.61384 0,0.3048 0.194733,0.44026 0.626533,0.5588 0.249767,0.0677 0.4191,0.10583 0.4191,0.27093 0,0.127 -0.135466,0.2286 -0.338666,0.2286 -0.2667,0 -0.4318,-0.0762 -0.503767,-0.23707 -0.0508,-0.1143 -0.0381,-0.18203 -0.182033,-0.18203 -0.118534,0 -0.186267,0.0593 -0.211667,0.18203 l -0.0762,0.38524 c -0.0042,0.0212 -0.0085,0.0423 -0.0085,0.0593 0,0.10584 0.07197,0.16087 0.1778,0.16087 0.08467,0 0.1524,-0.0508 0.1905,-0.14817 z"
         style="font-style:italic;font-variant:normal;font-weight:bold;font-stretch:normal;font-size:4.23333311px;line-height:1.25;font-family:'Courier 10 Pitch';-inkscape-font-specification:'Courier 10 Pitch Bold Italic';letter-spacing:0px;word-spacing:0px;fill:#000000;fill-opacity:1;stroke:none;stroke-width:0.26458332"
         id="path1365"
         inkscape:connector-curvature="0" />
      <path
         d="m 56.910085,126.81908 c 0.160867,0 0.2032,-0.0127 0.254,-0.127 0.05503,-0.12276 0.08467,-0.25823 0.08467,-0.3556 0,-0.14816 -0.0381,-0.1651 -0.211667,-0.1651 -0.160866,0 -0.207433,0.0254 -0.254,0.13124 -0.0635,0.13546 -0.09737,0.3048 -0.09737,0.4064 0,0.0974 0.0508,0.11006 0.224367,0.11006 z m 0.3302,1.7399 h -0.410633 l 0.287867,-1.34196 c 0,-0.008 0.0042,-0.0169 0.0042,-0.0254 0,-0.0508 -0.0381,-0.0847 -0.09313,-0.0847 h -0.626534 c -0.198966,0 -0.3048,0.0931 -0.3048,0.2667 0,0.11853 0.08043,0.1905 0.1778,0.1905 h 0.254 l -0.207433,0.99483 h -0.389467 c -0.207433,0 -0.313266,0.0931 -0.313266,0.27094 0,0.127 0.0635,0.18626 0.198966,0.18626 h 1.325034 c 0.207433,0 0.313266,-0.0931 0.313266,-0.2667 0,-0.127 -0.06773,-0.1905 -0.2159,-0.1905 z"
         style="font-style:italic;font-variant:normal;font-weight:bold;font-stretch:normal;font-size:4.23333311px;line-height:1.25;font-family:'Courier 10 Pitch';-inkscape-font-specification:'Courier 10 Pitch Bold Italic';letter-spacing:0px;word-spacing:0px;fill:#000000;fill-opacity:1;stroke:none;stroke-width:0.26458332"
         id="path1367"
         inkscape:connector-curvature="0" />
      <path
         d="m 59.063,128.55898 c -0.232833,0 -0.385233,-0.17356 -0.385233,-0.41486 0,-0.3937 0.2413,-0.66887 0.541866,-0.66887 0.245534,0 0.397933,0.16087 0.397933,0.42757 0,0.3683 -0.249766,0.65616 -0.554566,0.65616 z m 1.223433,-1.45203 h -0.325967 c -0.105833,0 -0.127,0.0296 -0.148166,0.127 l -0.02963,0.127 c -0.160866,-0.20743 -0.359833,-0.3048 -0.613833,-0.3048 -0.5969,0 -1.0414,0.49107 -1.0414,1.10067 0,0.5207 0.2921,0.8255 0.745067,0.8255 0.224367,0 0.3937,-0.0635 0.5842,-0.20744 -0.09313,0.43604 -0.2667,0.61807 -0.639233,0.61807 -0.186267,0 -0.3302,-0.0508 -0.4318,-0.0508 -0.1778,0 -0.275167,0.0889 -0.275167,0.2286 0,0.18627 0.194733,0.27093 0.592667,0.27093 0.423333,0 0.715433,-0.0762 0.935566,-0.31326 0.182033,-0.1905 0.237067,-0.45297 0.300567,-0.762 l 0.245533,-1.2065 c 0.207433,0 0.3175,-0.0931 0.3175,-0.2667 0,-0.127 -0.06773,-0.18627 -0.2159,-0.18627 z"
         style="font-style:italic;font-variant:normal;font-weight:bold;font-stretch:normal;font-size:4.23333311px;line-height:1.25;font-family:'Courier 10 Pitch';-inkscape-font-specification:'Courier 10 Pitch Bold Italic';letter-spacing:0px;word-spacing:0px;fill:#000000;fill-opacity:1;stroke:none;stroke-width:0.26458332"
         id="path1369"
         inkscape:connector-curvature="0" />
      <path
         d="m 61.313281,128.55898 0.135467,-0.6223 c 0.05927,-0.27093 0.296333,-0.4445 0.486833,-0.4445 0.1524,0 0.211667,0.0762 0.211667,0.23707 0,0.0381 0,0.0762 -0.0085,0.1143 l -0.1524,0.71543 c -0.1778,0.0169 -0.2667,0.11007 -0.2667,0.27094 0,0.12276 0.06773,0.18626 0.186267,0.18626 h 0.491066 c 0.207434,0 0.313267,-0.0931 0.313267,-0.2667 0,-0.127 -0.07197,-0.1905 -0.2159,-0.1905 l 0.156633,-0.7366 c 0.01693,-0.0847 0.0254,-0.1651 0.0254,-0.24553 0,-0.33443 -0.207433,-0.5207 -0.524933,-0.5207 -0.211667,0 -0.423333,0.0931 -0.6223,0.28363 l 0.02117,-0.12276 c 0,-0.008 0.0042,-0.0169 0.0042,-0.0254 0,-0.055 -0.03387,-0.0847 -0.0889,-0.0847 h -0.3683 c -0.198966,0 -0.3048,0.0931 -0.3048,0.2667 0,0.11853 0.0762,0.1905 0.173567,0.1905 h 0.05503 l -0.2032,0.99483 c -0.0085,0 -0.0127,0 -0.02117,0 -0.186267,0 -0.2921,0.10584 -0.2921,0.27094 0,0.127 0.06773,0.18626 0.2032,0.18626 h 0.512233 c 0.198967,0 0.3048,-0.0974 0.3048,-0.2667 0,-0.127 -0.06773,-0.1905 -0.211667,-0.1905 z"
         style="font-style:italic;font-variant:normal;font-weight:bold;font-stretch:normal;font-size:4.23333311px;line-height:1.25;font-family:'Courier 10 Pitch';-inkscape-font-specification:'Courier 10 Pitch Bold Italic';letter-spacing:0px;word-spacing:0px;fill:#000000;fill-opacity:1;stroke:none;stroke-width:0.26458332"
         id="path1371"
         inkscape:connector-curvature="0" />
      <path
         inkscape:transform-center-y="-3.4088465"
         inkscape:transform-center-x="0.11082653"
         d="m 61.65068,105.03809 5.904295,10.61044 5.904294,10.61045 -12.141062,-0.19195 -12.141062,-0.19196 6.236768,-10.41849 z"
         inkscape:randomized="0"
         inkscape:rounded="0"
         inkscape:flatsided="false"
         sodipodi:arg2="-0.50778982"
         sodipodi:arg1="-1.5549874"
         sodipodi:r2="7.0105214"
         sodipodi:r1="14.021043"
         sodipodi:cy="119.05738"
         sodipodi:cx="61.429031"
         sodipodi:sides="3"
         id="path941-5-2-7"
         style="fill:none;fill-opacity:1;stroke:#000000;stroke-width:0.58640957;stroke-linejoin:miter;stroke-miterlimit:4;stroke-dasharray:none;stroke-opacity:1"
         sodipodi:type="star" />
      <path
         inkscape:connector-curvature="0"
         id="path1343-6"
         style="font-style:normal;font-variant:normal;font-weight:normal;font-stretch:normal;font-size:medium;line-height:1.25;font-family:'Courier 10 Pitch';-inkscape-font-specification:'Courier 10 Pitch';letter-spacing:0px;word-spacing:0px;fill:#000000;fill-opacity:1;stroke:none;stroke-width:0.26458332"
         d="m 82.308849,119.76695 c 0,0.52917 0.402167,0.92075 1.016,0.92075 0.613833,0 1.016,-0.381 1.016,-0.92075 0,-0.53975 -0.402167,-0.92075 -1.016,-0.92075 -0.613833,0 -1.016,0.39158 -1.016,0.92075 z" />
    </g>
  </g>
</svg>
