<?xml version="1.0" encoding="UTF-8" standalone="no"?>
<!-- Created with Inkscape (http://www.inkscape.org/) -->

<svg
   xmlns:dc="http://purl.org/dc/elements/1.1/"
   xmlns:cc="http://creativecommons.org/ns#"
   xmlns:rdf="http://www.w3.org/1999/02/22-rdf-syntax-ns#"
   xmlns:svg="http://www.w3.org/2000/svg"
   xmlns="http://www.w3.org/2000/svg"
   xmlns:sodipodi="http://sodipodi.sourceforge.net/DTD/sodipodi-0.dtd"
   xmlns:inkscape="http://www.inkscape.org/namespaces/inkscape"
   width="297mm"
   height="210mm"
   viewBox="0 0 297 210"
   version="1.1"
   id="svg5491"
   inkscape:version="0.92.3 (2405546, 2018-03-11)"
   sodipodi:docname="logo-spacecasttv.com.svg">
  <defs
     id="defs5485" />
  <sodipodi:namedview
     id="base"
     pagecolor="#ffffff"
     bordercolor="#666666"
     borderopacity="1.0"
     inkscape:pageopacity="0.0"
     inkscape:pageshadow="2"
     inkscape:zoom="0.35"
     inkscape:cx="-108.57143"
     inkscape:cy="560"
     inkscape:document-units="mm"
     inkscape:current-layer="layer1"
     showgrid="false"
     inkscape:window-width="1920"
     inkscape:window-height="1025"
     inkscape:window-x="0"
     inkscape:window-y="27"
     inkscape:window-maximized="1" />
  <metadata
     id="metadata5488">
    <rdf:RDF>
      <cc:Work
         rdf:about="">
        <dc:format>image/svg+xml</dc:format>
        <dc:type
           rdf:resource="http://purl.org/dc/dcmitype/StillImage" />
        <dc:title></dc:title>
      </cc:Work>
    </rdf:RDF>
  </metadata>
  <g
     inkscape:label="Layer 1"
     inkscape:groupmode="layer"
     id="layer1"
     transform="translate(0,-87)">
    <g
       id="g2714"
       transform="matrix(3.0610472,0,0,3.0610472,4.3669513,-545.31805)">
      <path
         id="rect1565-8-7-8-0"
         d="M 9.5122519,207.95912 H 83.15058 v 66.02053 H 9.5122519 Z"
         style="fill:#fffcf6;fill-opacity:0.64705882;stroke:none;stroke-width:1.21805859;stroke-linejoin:miter;stroke-miterlimit:4;stroke-dasharray:none;stroke-opacity:1"
         inkscape:connector-curvature="0" />
      <path
         d="m 22.626508,253.76807 c 0.592473,-0.51562 1.047069,-1.0487 1.383167,-1.60403 1.110584,-1.83497 0.846537,-3.66071 -0.517621,-4.48634 -1.062358,-0.64297 -1.896592,-0.19121 -3.20194,0.68469 -0.723041,0.48607 -1.150007,0.75548 -1.644963,0.45592 -0.482895,-0.29226 -0.545812,-0.92414 -0.180488,-1.52775 0.328792,-0.54325 0.736061,-0.72561 1.335858,-0.62651 0.493371,0.0842 0.749427,0.20616 1.027073,-0.25258 0.204581,-0.33802 0.167083,-0.65762 -0.110264,-0.90795 l -1.234864,-1.09375 c -0.07722,-0.0632 -0.142332,-0.11913 -0.214769,-0.16298 -0.31387,-0.18996 -0.577869,-0.13531 -0.760531,0.16649 -0.168049,0.27766 -0.137547,0.52705 0.07658,0.85458 -0.548315,0.3609 -0.910469,0.7685 -1.23926,1.31175 -1.059439,1.75047 -0.743936,3.40942 0.559865,4.19852 0.772622,0.46761 1.622426,0.37165 2.63647,-0.26819 1.060097,-0.66145 1.558532,-1.26697 2.307012,-0.81397 0.470814,0.28495 0.579483,0.97751 0.141095,1.70184 -0.423776,0.70019 -1.093131,1.07031 -1.656706,0.99313 -0.607104,-0.087 -0.966095,-0.50225 -1.316809,0.0772 -0.211888,0.35009 -0.14294,0.67222 0.182692,0.95178 l 1.411185,1.18398 c 0.07722,0.0632 0.142332,0.11913 0.202688,0.15566 0.350102,0.21189 0.640777,0.1404 0.845358,-0.19762 0.138823,-0.22938 0.120393,-0.47145 -0.03083,-0.7939 z"
         style="font-style:normal;font-variant:normal;font-weight:normal;font-stretch:normal;font-size:14.11111069px;line-height:1.25;font-family:'Courier 10 Pitch';-inkscape-font-specification:'Courier 10 Pitch';letter-spacing:0px;word-spacing:0px;fill:#000000;fill-opacity:1;stroke:none;stroke-width:0.26458332"
         id="path1443"
         inkscape:connector-curvature="0" />
      <path
         d="m 22.020629,239.28944 -1.475909,2.43859 c -0.343404,0.5674 -0.248409,1.03725 0.246556,1.33682 0.338022,0.20458 0.655389,0.11626 0.830745,-0.17348 l 0.09498,-0.15694 3.841539,3.5456 -0.109597,0.18108 c -0.241114,0.39838 -0.117203,0.90223 0.34154,1.17988 0.362173,0.21919 0.640776,0.1404 0.874583,-0.24591 l 1.139811,-1.88327 c 0.343404,-0.5674 0.248409,-1.03725 -0.234485,-1.32951 -0.362164,-0.21919 -0.66746,-0.12356 -0.908574,0.27482 l -0.197275,0.32595 -1.077929,-0.99878 0.584518,-0.96577 c 1.344392,-2.22129 1.159458,-3.8507 -0.506507,-4.85899 -1.303802,-0.7891 -2.4284,-0.34813 -3.444,1.32991 z m 2.196246,3.457 -1.579253,-1.53311 0.540678,-0.89334 c 0.438389,-0.72434 0.954618,-0.92323 1.485797,-0.60174 0.74848,0.453 0.685282,1.157 -0.03075,2.34008 z"
         style="font-style:normal;font-variant:normal;font-weight:normal;font-stretch:normal;font-size:14.11111069px;line-height:1.25;font-family:'Courier 10 Pitch';-inkscape-font-specification:'Courier 10 Pitch';letter-spacing:0px;word-spacing:0px;fill:#000000;fill-opacity:1;stroke:none;stroke-width:0.26458332"
         id="path1445"
         inkscape:connector-curvature="0" />
      <path
         d="m 29.195777,236.01889 -1.772441,-2.9036 2.802654,1.20142 z m -2.469724,-1.56073 2.913617,5.07877 -0.131518,0.2173 c -0.241113,0.39838 -0.124509,0.9143 0.334234,1.19195 0.362173,0.21919 0.648084,0.12833 0.881891,-0.25799 l 0.942535,-1.55731 c 0.343405,-0.5674 0.248409,-1.03725 -0.234485,-1.32951 -0.362164,-0.21919 -0.66746,-0.12357 -0.908574,0.27482 l -0.03654,0.0604 -0.440012,-0.74464 1.505134,-2.48688 0.703047,0.31004 -0.175356,0.28973 c -0.314178,0.51911 -0.21441,1.00835 0.268476,1.3006 0.362173,0.2192 0.648082,0.12833 0.88189,-0.25798 l 1.03752,-1.71426 c 0.343404,-0.56739 0.24841,-1.03724 -0.246556,-1.33681 -0.338021,-0.20458 -0.655389,-0.11626 -0.830745,0.17347 l -0.08037,0.1328 -5.774634,-2.42285 c -0.299574,-0.13183 -0.495904,-0.0527 -0.671259,0.23701 l -1.366311,2.25751 c -0.343405,0.56739 -0.24841,1.03725 0.246555,1.33681 0.338022,0.20459 0.662696,0.10419 0.838051,-0.18554 z"
         style="font-style:normal;font-variant:normal;font-weight:normal;font-stretch:normal;font-size:14.11111069px;line-height:1.25;font-family:'Courier 10 Pitch';-inkscape-font-specification:'Courier 10 Pitch';letter-spacing:0px;word-spacing:0px;fill:#000000;fill-opacity:1;stroke:none;stroke-width:0.26458332"
         id="path1447"
         inkscape:connector-curvature="0" />
      <path
         d="m 32.034604,223.17976 c -0.553088,0.34152 -0.992753,0.76818 -1.336157,1.33558 -0.76718,1.26758 -0.907569,2.53515 -0.424016,3.91644 0.426047,1.23102 1.415988,2.45695 2.586989,3.16567 1.593537,0.96446 3.250262,0.59813 4.258556,-1.06784 1.139811,-1.88327 1.087022,-3.89454 0.42305,-4.2964 -0.289736,-0.17535 -0.631247,-0.10164 -0.799296,0.17602 -0.328791,0.54325 0.03912,1.78857 -0.61846,2.87507 -0.584518,0.96578 -1.478161,1.13418 -2.492235,0.52043 -1.678036,-1.0156 -2.500257,-3.0637 -1.711158,-4.3675 0.453002,-0.74848 1.097577,-0.96865 1.689121,-0.61063 0.03619,0.0219 0.08452,0.0512 0.120721,0.0731 0.434601,0.26304 0.59948,0.18139 0.855206,-0.24114 0.204582,-0.33802 0.133093,-0.62871 -0.189998,-0.93971 l -1.442014,-1.35109 c -0.135018,-0.13119 -0.236362,-0.20902 -0.284647,-0.23824 -0.265594,-0.16075 -0.461922,-0.0816 -0.637278,0.20809 -0.168048,0.27766 -0.166454,0.49305 0.0016,0.84219 z"
         style="font-style:normal;font-variant:normal;font-weight:normal;font-stretch:normal;font-size:14.11111069px;line-height:1.25;font-family:'Courier 10 Pitch';-inkscape-font-specification:'Courier 10 Pitch';letter-spacing:0px;word-spacing:0px;fill:#000000;fill-opacity:1;stroke:none;stroke-width:0.26458332"
         id="path1449"
         inkscape:connector-curvature="0" />
      <path
         d="m 36.565542,215.2574 -2.915285,4.81682 c -0.343405,0.56739 -0.24841,1.03725 0.246555,1.33681 0.338022,0.20458 0.662696,0.10419 0.838052,-0.18555 l 0.09498,-0.15693 3.834233,3.55766 -0.102291,0.16901 c -0.241114,0.39839 -0.12451,0.91431 0.334233,1.19195 0.362173,0.2192 0.648083,0.12833 0.88189,-0.25798 l 2.959124,-4.88925 c 0.204581,-0.33803 0.171538,-0.55596 -0.134717,-0.84028 l -1.253932,-1.17127 c -0.08197,-0.0826 -0.166474,-0.13374 -0.226839,-0.17028 -0.350093,-0.21189 -0.628696,-0.13309 -0.840585,0.21701 -0.270339,0.44667 -0.157872,0.77865 0.40412,1.26723 l 0.448585,0.40345 -1.55628,2.57139 -1.531279,-1.42161 0.555293,-0.91749 c 0.118181,0.10451 0.219525,0.18234 0.328175,0.2481 0.301808,0.18266 0.524821,0.0867 0.744014,-0.27545 0.277646,-0.45875 0.118799,-0.68684 -0.269421,-1.05376 l -1.118916,-1.04008 c -0.08197,-0.0826 -0.183312,-0.16042 -0.243668,-0.19695 -0.301808,-0.18266 -0.56834,-0.0966 -0.765615,0.22939 -0.255727,0.42253 -0.152797,0.71574 0.332002,1.14111 l -0.562599,0.92957 -1.309524,-1.18843 1.570893,-2.59553 0.45335,0.42283 c 0.118181,0.10451 0.219525,0.18234 0.328175,0.2481 0.301808,0.18266 0.52482,0.0867 0.744015,-0.27545 0.277646,-0.45875 0.118798,-0.68684 -0.269422,-1.05376 l -1.355285,-1.24911 c -0.01682,-0.0267 -0.04095,-0.0413 -0.07722,-0.0632 -0.169015,-0.10229 -0.389485,-0.0378 -0.56484,0.25194 z"
         style="font-style:normal;font-variant:normal;font-weight:normal;font-stretch:normal;font-size:14.11111069px;line-height:1.25;font-family:'Courier 10 Pitch';-inkscape-font-specification:'Courier 10 Pitch';letter-spacing:0px;word-spacing:0px;fill:#000000;fill-opacity:1;stroke:none;stroke-width:0.26458332"
         id="path1451"
         inkscape:connector-curvature="0" />
      <path
         d="m 63.61678,225.50189 c -0.02332,-0.64961 -0.176724,-1.24275 -0.50005,-1.82182 -0.722324,-1.29367 -1.754609,-2.04255 -3.194296,-2.30537 -1.280646,-0.23849 -2.835723,0.0156 -4.030831,0.68293 -1.626331,0.90807 -2.127243,2.52918 -1.177903,4.22943 1.073168,1.92203 2.847369,2.87081 3.525005,2.49245 0.295699,-0.16511 0.400523,-0.49839 0.2423,-0.78176 -0.309568,-0.55443 -1.573893,-0.85052 -2.193029,-1.95938 -0.550342,-0.98565 -0.254753,-1.84565 0.780181,-2.42351 1.712578,-0.95622 3.899306,-0.65799 4.642269,0.67265 0.426516,0.76388 0.299112,1.433 -0.304597,1.77008 -0.03693,0.0206 -0.08626,0.0482 -0.123214,0.0688 -0.443545,0.24765 -0.454111,0.43133 -0.213336,0.86256 0.19262,0.34497 0.480613,0.4266 0.910714,0.29958 l 1.887429,-0.58516 c 0.180801,-0.0525 0.298566,-0.10206 0.347854,-0.12958 0.271051,-0.15134 0.299385,-0.36111 0.134282,-0.6568 -0.158223,-0.28338 -0.346221,-0.38851 -0.73278,-0.4151 z"
         style="font-style:italic;font-variant:normal;font-weight:bold;font-stretch:normal;font-size:14.11111069px;line-height:0;font-family:'Courier 10 Pitch';-inkscape-font-specification:'Courier 10 Pitch Bold Italic';letter-spacing:0px;word-spacing:0px;fill:#030200;fill-opacity:0.64516129;stroke:none;stroke-width:0.26458332"
         id="path1453"
         inkscape:connector-curvature="0" />
      <path
         d="m 62.138141,231.50834 3.400217,-0.10457 -2.430239,1.84179 z m 2.577894,-1.37473 -5.855146,0.0207 -0.123826,-0.22177 c -0.227017,-0.40659 -0.733096,-0.56038 -1.201279,-0.29897 -0.369618,0.20638 -0.432043,0.49982 -0.211905,0.89408 l 0.887427,1.58937 c 0.323326,0.57907 0.778688,0.72886 1.271511,0.45369 0.369626,-0.20638 0.437482,-0.51902 0.210466,-0.9256 l -0.03439,-0.0616 0.864815,-0.0142 1.417132,2.53806 -0.61716,0.45772 -0.165105,-0.2957 c -0.295809,-0.52978 -0.77036,-0.68502 -1.263192,-0.40985 -0.369617,0.20638 -0.432042,0.49982 -0.211905,0.89408 l 0.976858,1.74954 c 0.323327,0.57907 0.778687,0.72886 1.28383,0.44681 0.344986,-0.19262 0.425163,-0.51214 0.260061,-0.80783 l -0.07567,-0.13553 4.961624,-3.82085 c 0.262743,-0.19518 0.291076,-0.40495 0.125973,-0.70065 l -1.286426,-2.30396 c -0.323326,-0.57907 -0.778688,-0.72886 -1.28383,-0.44682 -0.344987,0.19263 -0.418284,0.52446 -0.253181,0.82016 z"
         style="font-style:italic;font-variant:normal;font-weight:bold;font-stretch:normal;font-size:14.11111069px;line-height:0;font-family:'Courier 10 Pitch';-inkscape-font-specification:'Courier 10 Pitch Bold Italic';letter-spacing:0px;word-spacing:0px;fill:#030200;fill-opacity:0.64516129;stroke:none;stroke-width:0.26458332"
         id="path1455"
         inkscape:connector-curvature="0" />
      <path
         d="m 62.375092,239.2559 c 0.155149,0.76994 0.393668,1.42869 0.710115,1.99544 1.04565,1.87274 2.763072,2.54615 4.155312,1.76879 1.084212,-0.60537 1.104119,-1.55387 0.98838,-3.12158 -0.0649,-0.86882 -0.0879,-1.37315 0.417246,-1.65521 0.492823,-0.27516 1.073135,-0.0174 1.4171,0.59867 0.309567,0.55443 0.266657,0.9986 -0.116098,1.4709 -0.317154,0.38718 -0.549807,0.54941 -0.288395,1.0176 0.19262,0.34497 0.488932,0.47044 0.843667,0.35318 l 1.561344,-0.53238 c 0.09314,-0.0358 0.173922,-0.0648 0.247849,-0.10607 0.320338,-0.17886 0.403392,-0.43534 0.23141,-0.74335 -0.158224,-0.28338 -0.390059,-0.3802 -0.780629,-0.35606 -0.04251,-0.65506 -0.217685,-1.1714 -0.527252,-1.72583 -0.997496,-1.7865 -2.595398,-2.3327 -3.926031,-1.58973 -0.78853,0.44027 -1.125386,1.22634 -1.070744,2.42413 0.05063,1.2485 0.330434,1.98117 -0.433448,2.40769 -0.480512,0.26829 -1.136182,0.0202 -1.548938,-0.719 -0.398999,-0.7146 -0.389667,-1.47941 -0.04387,-1.93108 0.375875,-0.48462 0.914293,-0.5913 0.584085,-1.18269 -0.199499,-0.3573 -0.513571,-0.45669 -0.917593,-0.31191 l -1.726949,0.64101 c -0.09314,0.0359 -0.173922,0.0648 -0.235529,0.0992 -0.357298,0.1995 -0.438921,0.4875 -0.246302,0.83248 0.130706,0.23409 0.350223,0.33779 0.705272,0.36581 z"
         style="font-style:italic;font-variant:normal;font-weight:bold;font-stretch:normal;font-size:14.11111069px;line-height:0;font-family:'Courier 10 Pitch';-inkscape-font-specification:'Courier 10 Pitch Bold Italic';letter-spacing:0px;word-spacing:0px;fill:#030200;fill-opacity:0.64516129;stroke:none;stroke-width:0.26458332"
         id="path1457"
         inkscape:connector-curvature="0" />
      <path
         d="m 66.260928,246.53378 1.905561,3.41282 c 0.323326,0.57907 0.778688,0.72887 1.28383,0.44682 0.344987,-0.19263 0.425163,-0.51214 0.260061,-0.80784 l -0.591618,-1.05958 4.981476,-1.58545 0.701687,1.25671 -1.276535,0.40568 c -0.136963,0.0442 -0.273927,0.0883 -0.384813,0.15022 -0.308018,0.17199 -0.334914,0.41327 -0.128536,0.78289 0.261413,0.46818 0.557418,0.44836 1.055997,0.29927 l 2.447615,-0.76864 c 0.02462,-0.0137 0.05612,-0.0152 0.08083,-0.029 0.184805,-0.10318 0.230908,-0.33903 0.07268,-0.6224 l -3.06128,-5.4827 c -0.144465,-0.25873 -0.395508,-0.36099 -0.61327,-0.28789 l -2.386016,0.73426 c -0.136964,0.0442 -0.254728,0.0937 -0.377934,0.16254 -0.308019,0.17198 -0.334914,0.41326 -0.128536,0.78288 0.261412,0.46819 0.550539,0.43605 1.049117,0.28696 l 1.408058,-0.43064 0.701687,1.25671 -4.988356,1.57313 -0.598497,-1.07189 c -0.227016,-0.40659 -0.726216,-0.54806 -1.1944,-0.28665 -0.369617,0.20638 -0.438921,0.4875 -0.218784,0.88176 z"
         style="font-style:italic;font-variant:normal;font-weight:bold;font-stretch:normal;font-size:14.11111069px;line-height:0;font-family:'Courier 10 Pitch';-inkscape-font-specification:'Courier 10 Pitch Bold Italic';letter-spacing:0px;word-spacing:0px;fill:#030200;fill-opacity:0.64516129;stroke:none;stroke-width:0.26458332"
         id="path1459"
         inkscape:connector-curvature="0" />
      <path
         d="m 37.713789,249.35563 c 0,0.32385 0.2413,0.55245 0.6096,0.55245 0.37465,0 0.61595,-0.2286 0.61595,-0.55245 0,-0.32385 -0.2413,-0.55245 -0.61595,-0.55245 -0.3683,0 -0.6096,0.2286 -0.6096,0.55245 z"
         style="font-style:normal;font-variant:normal;font-weight:normal;font-stretch:normal;font-size:6.3499999px;line-height:1.25;font-family:'Courier 10 Pitch';-inkscape-font-specification:'Courier 10 Pitch';letter-spacing:0px;word-spacing:0px;fill:#000000;fill-opacity:1;stroke:none;stroke-width:0.26458332"
         id="path1461"
         inkscape:connector-curvature="0" />
      <path
         d="m 43.343462,247.14583 c -0.22225,-0.17145 -0.51435,-0.254 -0.8763,-0.254 -1.143,0 -1.92405,0.7874 -1.92405,1.80975 0,0.7366 0.520701,1.20015 1.441451,1.20015 0.86995,0 1.581149,-0.38735 1.581149,-0.7366 0,-0.18415 -0.12065,-0.3048 -0.2794,-0.3048 -0.2159,0 -0.577849,0.4064 -1.2192,0.4064 -0.438149,0 -0.704849,-0.27305 -0.704849,-0.65405 0,-0.60325 0.42545,-1.0668 1.085849,-1.0668 0.381,0 0.5334,0.13335 0.641351,0.381 0.08255,0.1905 0.120649,0.31115 0.317499,0.31115 0.2032,0 0.32385,-0.1016 0.36195,-0.3175 l 0.127,-0.69215 c 0.0064,-0.0381 0.0127,-0.0762 0.0127,-0.1016 0,-0.1778 -0.08255,-0.2413 -0.27305,-0.2413 -0.15875,0 -0.2413,0.0762 -0.2921,0.26035 z"
         style="font-style:normal;font-variant:normal;font-weight:normal;font-stretch:normal;font-size:6.3499999px;line-height:1.25;font-family:'Courier 10 Pitch';-inkscape-font-specification:'Courier 10 Pitch';letter-spacing:0px;word-spacing:0px;fill:#000000;fill-opacity:1;stroke:none;stroke-width:0.26458332"
         id="path1463"
         inkscape:connector-curvature="0" />
      <path
         d="m 44.439236,248.63173 c 0,0.7747 0.5461,1.27635 1.397001,1.27635 1.041399,0 1.816098,-0.7874 1.816098,-1.74625 0,-0.76835 -0.546099,-1.27635 -1.403349,-1.27635 -1.0287,0 -1.80975,0.7874 -1.80975,1.74625 z m 1.739901,-1.11125 c 0.37465,0 0.635,0.2794 0.635,0.66675 0,0.635 -0.38735,1.0922 -0.88265,1.0922 -0.40005,0 -0.65405,-0.27305 -0.65405,-0.6985 0,-0.60325 0.41275,-1.06045 0.9017,-1.06045 z"
         style="font-style:normal;font-variant:normal;font-weight:normal;font-stretch:normal;font-size:6.3499999px;line-height:1.25;font-family:'Courier 10 Pitch';-inkscape-font-specification:'Courier 10 Pitch';letter-spacing:0px;word-spacing:0px;fill:#000000;fill-opacity:1;stroke:none;stroke-width:0.26458332"
         id="path1465"
         inkscape:connector-curvature="0" />
      <path
         d="m 48.456005,247.65383 -0.3175,1.49225 c -0.0127,0 -0.01905,0 -0.03175,0 -0.279399,0 -0.438149,0.15875 -0.438149,0.4064 0,0.1905 0.1016,0.2794 0.3048,0.2794 h 0.666749 c 0.29845,0 0.4572,-0.14605 0.4572,-0.40005 0,-0.1778 -0.09525,-0.27305 -0.285749,-0.28575 l 0.247649,-1.08585 c 0.06985,-0.3048 0.254001,-0.5207 0.41275,-0.5207 0.1143,0 0.1905,0.0825 0.1905,0.2159 0,0.0635 -0.0127,0.1397 -0.03175,0.2286 l -0.3429,1.61925 c -0.0064,0.0317 -0.0127,0.0635 -0.0127,0.0952 0,0.0889 0.04445,0.13335 0.158749,0.13335 h 0.450851 c 0.29845,0 0.4572,-0.14605 0.4572,-0.40005 0,-0.1778 -0.0889,-0.27305 -0.2794,-0.28575 l 0.2413,-1.08585 c 0.06985,-0.3048 0.254,-0.5207 0.41275,-0.5207 0.1143,0 0.1905,0.0825 0.1905,0.2159 0,0.0635 -0.0127,0.1397 -0.03175,0.2286 l -0.3429,1.61925 c -0.0063,0.0317 -0.0127,0.0635 -0.0127,0.0889 0,0.0952 0.0508,0.1397 0.1651,0.1397 h 0.45085 c 0.29845,0 0.4572,-0.14605 0.4572,-0.40005 0,-0.1778 -0.0889,-0.27305 -0.2794,-0.28575 l 0.2413,-1.08585 c 0.0508,-0.23495 0.0889,-0.4191 0.0889,-0.5715 0,-0.381 -0.23495,-0.5969 -0.59055,-0.5969 -0.24765,0 -0.4953,0.12065 -0.762,0.3556 -0.0762,-0.23495 -0.23495,-0.3556 -0.4572,-0.3556 -0.23495,0 -0.45085,0.1143 -0.6858,0.33655 l 0.0254,-0.12065 c 0,-0.0127 0.0063,-0.0254 0.0063,-0.0381 0,-0.0635 -0.0508,-0.1016 -0.127,-0.1016 h -0.4953 c -0.29845,0 -0.4572,0.1397 -0.4572,0.40005 0,0.1778 0.1143,0.28575 0.26035,0.28575 z"
         style="font-style:normal;font-variant:normal;font-weight:normal;font-stretch:normal;font-size:6.3499999px;line-height:1.25;font-family:'Courier 10 Pitch';-inkscape-font-specification:'Courier 10 Pitch';letter-spacing:0px;word-spacing:0px;fill:#000000;fill-opacity:1;stroke:none;stroke-width:0.26458332"
         id="path1467"
         inkscape:connector-curvature="0" />
      <path
         id="path941-5-2-6-0"
         d="m 47.152281,218.03665 10.996456,19.76142 10.996456,19.76143 -22.612127,-0.3575 -22.612125,-0.35751 11.61567,-19.40392 z"
         inkscape:transform-center-y="-5.8130813"
         inkscape:transform-center-x="0.18899004"
         style="fill:none;fill-opacity:1;stroke:#000000;stroke-width:1.09215868;stroke-linejoin:miter;stroke-miterlimit:4;stroke-dasharray:none;stroke-opacity:1"
         inkscape:connector-curvature="0" />
      <path
         id="path941-5-2-6-1-7"
         d="m 47.280122,223.80885 8.673688,15.58725 8.673689,15.58724 -17.835796,-0.28198 -17.835794,-0.28199 9.162106,-15.30526 z"
         inkscape:transform-center-y="-4.585188"
         inkscape:transform-center-x="0.1490728"
         style="fill:none;fill-opacity:1;stroke:#000000;stroke-width:0.86146349;stroke-linejoin:miter;stroke-miterlimit:4;stroke-dasharray:none;stroke-opacity:1"
         inkscape:connector-curvature="0" />
      <path
         id="path941-5-2-6-1-9-5"
         d="m -46.722873,229.75234 6.170559,11.08894 6.17056,11.08894 -12.688586,-0.20061 -12.688584,-0.20061 6.518026,-10.88833 z"
         inkscape:transform-center-y="-3.2619543"
         inkscape:transform-center-x="-0.10605163"
         style="fill:none;fill-opacity:1;stroke:#000000;stroke-width:0.61285478;stroke-linejoin:miter;stroke-miterlimit:4;stroke-dasharray:none;stroke-opacity:1"
         transform="scale(-1,1)"
         inkscape:connector-curvature="0" />
      <path
         d="m 52.551282,268.23605 h 3.908778 c 0.663222,0 1.016,-0.32455 1.016,-0.90311 0,-0.39511 -0.239889,-0.62089 -0.578555,-0.62089 h -1.213556 l 1.044222,-5.12233 h 1.439334 l -0.268111,1.31233 c -0.02822,0.14111 -0.05645,0.28223 -0.05645,0.40923 0,0.35277 0.197556,0.49388 0.620889,0.49388 0.536222,0 0.663222,-0.26811 0.776111,-0.77611 l 0.522111,-2.51177 c 0,-0.0282 0.01411,-0.0565 0.01411,-0.0847 0,-0.21167 -0.183444,-0.36689 -0.508,-0.36689 h -6.279444 c -0.296334,0 -0.508,0.16933 -0.550334,0.39511 l -0.522111,2.44122 c -0.02822,0.14111 -0.04233,0.26811 -0.04233,0.40923 0,0.35277 0.197555,0.49388 0.620889,0.49388 0.536222,0 0.649111,-0.26811 0.762,-0.77611 l 0.310444,-1.43933 h 1.439334 l -1.058334,5.12233 h -1.227666 c -0.465667,0 -0.832556,0.36689 -0.832556,0.90311 0,0.42334 0.211667,0.62089 0.663222,0.62089 z"
         style="font-style:italic;font-variant:normal;font-weight:bold;font-stretch:normal;font-size:14.11111164px;line-height:1.25;font-family:'Courier 10 Pitch';-inkscape-font-specification:'Courier 10 Pitch Bold Italic';letter-spacing:0px;word-spacing:0px;fill:#ffffff;fill-opacity:1;stroke:#000000;stroke-width:0.86499995;stroke-miterlimit:4;stroke-dasharray:none;stroke-opacity:1"
         id="path2671"
         inkscape:connector-curvature="0" />
      <path
         d="m 64.214998,267.86916 3.485444,-6.27944 h 0.112889 c 0.465667,0 0.846667,-0.35278 0.846667,-0.889 0,-0.42333 -0.225778,-0.635 -0.677334,-0.635 h -1.679222 c -0.663222,0 -1.016,0.33867 -1.016,0.90311 0,0.42333 0.239889,0.62089 0.705556,0.62089 h 0.07055 l -2.638778,4.75544 -0.592666,-4.75544 h 0.07055 c 0.606778,0 0.973667,-0.32456 0.973667,-0.889 0,-0.42333 -0.225778,-0.635 -0.677334,-0.635 h -1.919111 c -0.663222,0 -1.016,0.32456 -1.016,0.90311 0,0.39511 0.239889,0.62089 0.578556,0.62089 h 0.155222 l 0.917222,6.19478 c 0.04233,0.32455 0.211667,0.45155 0.550334,0.45155 h 1.114777 c 0.352778,0 0.479778,-0.0988 0.635001,-0.36689 z"
         style="font-style:italic;font-variant:normal;font-weight:bold;font-stretch:normal;font-size:14.11111164px;line-height:1.25;font-family:'Courier 10 Pitch';-inkscape-font-specification:'Courier 10 Pitch Bold Italic';letter-spacing:0px;word-spacing:0px;fill:#ffffff;fill-opacity:1;stroke:#000000;stroke-width:0.86499995;stroke-miterlimit:4;stroke-dasharray:none;stroke-opacity:1"
         id="path2673"
         inkscape:connector-curvature="0" />
    </g>
  </g>
</svg>
