<?xml version="1.0" encoding="UTF-8" standalone="no"?>
<!-- Created with Inkscape (http://www.inkscape.org/) -->

<svg
   xmlns:dc="http://purl.org/dc/elements/1.1/"
   xmlns:cc="http://creativecommons.org/ns#"
   xmlns:rdf="http://www.w3.org/1999/02/22-rdf-syntax-ns#"
   xmlns:svg="http://www.w3.org/2000/svg"
   xmlns="http://www.w3.org/2000/svg"
   xmlns:sodipodi="http://sodipodi.sourceforge.net/DTD/sodipodi-0.dtd"
   xmlns:inkscape="http://www.inkscape.org/namespaces/inkscape"
   width="297mm"
   height="210mm"
   viewBox="0 0 297 210"
   version="1.1"
   id="svg2922"
   inkscape:version="0.92.3 (2405546, 2018-03-11)"
   sodipodi:docname="logo-normansmatrix.xyz.svg">
  <defs
     id="defs2916" />
  <sodipodi:namedview
     id="base"
     pagecolor="#ffffff"
     bordercolor="#666666"
     borderopacity="1.0"
     inkscape:pageopacity="0.0"
     inkscape:pageshadow="2"
     inkscape:zoom="0.35"
     inkscape:cx="-108.57143"
     inkscape:cy="560"
     inkscape:document-units="mm"
     inkscape:current-layer="layer1"
     showgrid="false"
     units="mm"
     inkscape:window-width="1920"
     inkscape:window-height="1025"
     inkscape:window-x="0"
     inkscape:window-y="27"
     inkscape:window-maximized="1" />
  <metadata
     id="metadata2919">
    <rdf:RDF>
      <cc:Work
         rdf:about="">
        <dc:format>image/svg+xml</dc:format>
        <dc:type
           rdf:resource="http://purl.org/dc/dcmitype/StillImage" />
        <dc:title></dc:title>
      </cc:Work>
    </rdf:RDF>
  </metadata>
  <g
     inkscape:label="Layer 1"
     inkscape:groupmode="layer"
     id="layer1"
     transform="translate(0,-87)">
    <g
       id="g2887"
       transform="matrix(3.1464622,0,0,3.1464622,-43.553824,119.11183)">
      <path
         id="rect1565-81"
         d="M 14.795808,8.3385868 H 107.06835 V 39.383986 H 14.795808 Z"
         style="fill:#fffcf6;fill-opacity:0.64705882;stroke:none;stroke-width:0.93499982;stroke-linejoin:miter;stroke-miterlimit:4;stroke-dasharray:none;stroke-opacity:1"
         inkscape:connector-curvature="0" />
      <path
         d="m 21.30463,28.465713 c -0.04233,0 -0.07408,0 -0.105833,0 -0.423333,0 -0.60325,0.0635 -0.60325,0.359833 0,0.243417 0.137583,0.370417 0.433917,0.370417 0.137583,0 0.232833,0 0.275166,0 h 0.941917 c 0.391583,0 0.550333,-0.02117 0.550333,-0.370417 0,-0.28575 -0.137583,-0.370416 -0.497416,-0.370416 -0.0635,0 -0.137584,0.01058 -0.22225,0.01058 v -2.148417 c 0,-0.772583 0.719666,-1.23825 1.344083,-1.23825 0.677333,0 1.058333,0.41275 1.058333,1.23825 v 2.148417 c -0.0635,0 -0.116416,0 -0.169333,0 -0.370417,0 -0.518583,0.07408 -0.518583,0.359833 0,0.338667 0.148166,0.370417 0.518583,0.370417 h 1.143 c 0.370417,0 0.550333,-0.07408 0.550333,-0.370417 0,-0.264583 -0.15875,-0.359833 -0.486833,-0.359833 -0.07408,0 -0.15875,0 -0.232833,0 v -2.338917 c 0,-1.195916 -0.6985,-1.8415 -1.68275,-1.8415 -0.53975,0 -1.016,0.232834 -1.513417,0.6985 v -0.34925 c 0,-0.127 -0.09525,-0.211666 -0.296333,-0.211666 H 21.30463 c -0.47625,0 -0.709083,0 -0.709083,0.359833 0,0.264583 0.148167,0.370417 0.47625,0.370417 0.07408,0 0.15875,0 0.232833,0 z"
         style="font-style:normal;font-variant:normal;font-weight:normal;font-stretch:normal;font-size:medium;line-height:1.25;font-family:'Courier 10 Pitch';-inkscape-font-specification:'Courier 10 Pitch';letter-spacing:0px;word-spacing:0px;fill:#000000;fill-opacity:1;stroke:none;stroke-width:0.26458332"
         id="path2828"
         inkscape:connector-curvature="0" />
      <path
         d="m 32.296083,26.814713 c 0,-1.42875 -1.058333,-2.50825 -2.69875,-2.50825 -1.640417,0 -2.709333,1.068917 -2.709333,2.50825 0,1.439333 1.068916,2.50825 2.709333,2.50825 1.640417,0 2.69875,-1.068917 2.69875,-2.50825 z m -2.69875,1.788583 c -1.068917,0 -1.80975,-0.762 -1.80975,-1.788583 0,-1.026583 0.740833,-1.799167 1.80975,-1.799167 1.068917,0 1.80975,0.772584 1.80975,1.799167 0,1.037167 -0.740833,1.788583 -1.80975,1.788583 z"
         style="font-style:normal;font-variant:normal;font-weight:normal;font-stretch:normal;font-size:medium;line-height:1.25;font-family:'Courier 10 Pitch';-inkscape-font-specification:'Courier 10 Pitch';letter-spacing:0px;word-spacing:0px;fill:#000000;fill-opacity:1;stroke:none;stroke-width:0.26458332"
         id="path2830"
         inkscape:connector-curvature="0" />
      <path
         d="M 35.455869,28.465713 V 26.32788 c 0.687917,-0.783167 1.27,-1.195917 1.8415,-1.195917 0.402167,0 0.624417,0.3175 0.899583,0.3175 0.22225,0 0.455084,-0.232833 0.455084,-0.486833 0,-0.381 -0.381,-0.66675 -1.026583,-0.66675 -0.8255,0 -1.524,0.402166 -2.169584,1.217083 v -0.878417 c 0,-0.148166 -0.09525,-0.211666 -0.28575,-0.211666 h -1.17475 c -0.275166,0 -0.41275,0.116416 -0.41275,0.359833 0,0.264583 0.148167,0.370417 0.486834,0.370417 0.05292,0 0.148166,0 0.264583,0 h 0.34925 v 3.312583 h -0.910167 c -0.28575,0 -0.433916,0.116417 -0.433916,0.359833 0,0.243417 0.148166,0.370417 0.423333,0.370417 h 3.376083 c 0.306917,0 0.423334,-0.07408 0.423334,-0.370417 0,-0.254 -0.127,-0.359833 -0.391584,-0.359833 z"
         style="font-style:normal;font-variant:normal;font-weight:normal;font-stretch:normal;font-size:medium;line-height:1.25;font-family:'Courier 10 Pitch';-inkscape-font-specification:'Courier 10 Pitch';letter-spacing:0px;word-spacing:0px;fill:#000000;fill-opacity:1;stroke:none;stroke-width:0.26458332"
         id="path2832"
         inkscape:connector-curvature="0" />
      <path
         d="m 44.21424,26.317296 v 2.360084 c 0,0.338666 0.148166,0.518583 0.433916,0.518583 h 0.624417 c 0.243417,0 0.370417,-0.127 0.370417,-0.370417 0,-0.296333 -0.148167,-0.359833 -0.53975,-0.359833 -0.03175,0 -0.0635,0 -0.09525,0 v -2.338917 c 0,-1.2065 -0.3175,-1.8415 -1.27,-1.8415 -0.497417,0 -0.867834,0.211667 -1.153584,0.635 -0.148166,-0.423333 -0.465666,-0.635 -0.941916,-0.635 -0.402167,0 -0.719667,0.137584 -0.994834,0.4445 -0.02117,-0.254 -0.07408,-0.306916 -0.296333,-0.306916 h -0.79375 c -0.275167,0 -0.402167,0.116416 -0.402167,0.359833 0,0.264583 0.148167,0.370417 0.47625,0.370417 0.07408,0 0.15875,0 0.232834,0 v 3.312583 c -0.04233,0 -0.07408,0 -0.105834,0 -0.423333,0 -0.60325,0.0635 -0.60325,0.359833 0,0.243417 0.127,0.370417 0.402167,0.370417 h 1.375833 c 0.306917,0 0.423334,-0.07408 0.423334,-0.370417 0,-0.28575 -0.137584,-0.370416 -0.497417,-0.370416 -0.0635,0 -0.137583,0.01058 -0.22225,0.01058 v -2.846917 c 0.1905,-0.359833 0.4445,-0.53975 0.762,-0.53975 0.391583,0 0.677333,0.306917 0.677333,0.836084 0,0.0635 0,0.201083 0,0.402166 v 2.180167 c 0,0.05292 0,0.09525 0,0.137583 0,0.402167 0.02117,0.560917 0.359834,0.560917 h 0.656166 c 0.243417,0 0.359834,-0.127 0.359834,-0.370417 0,-0.296333 -0.148167,-0.359833 -0.53975,-0.359833 -0.03175,0 -0.0635,0 -0.09525,0 v -2.148417 c 0,-0.8255 0.359833,-1.23825 0.836083,-1.23825 0.518583,0 0.560917,0.455084 0.560917,1.23825 z"
         style="font-style:normal;font-variant:normal;font-weight:normal;font-stretch:normal;font-size:medium;line-height:1.25;font-family:'Courier 10 Pitch';-inkscape-font-specification:'Courier 10 Pitch';letter-spacing:0px;word-spacing:0px;fill:#000000;fill-opacity:1;stroke:none;stroke-width:0.26458332"
         id="path2834"
         inkscape:connector-curvature="0" />
      <path
         d="m 59.503849,28.465713 c -0.04233,0 -0.07408,0 -0.105833,0 -0.423334,0 -0.60325,0.0635 -0.60325,0.359833 0,0.243417 0.137583,0.370417 0.433916,0.370417 0.137584,0 0.232834,0 0.275167,0 h 0.941917 c 0.391583,0 0.550333,-0.02117 0.550333,-0.370417 0,-0.28575 -0.137583,-0.370416 -0.497417,-0.370416 -0.0635,0 -0.137583,0.01058 -0.22225,0.01058 v -2.148417 c 0,-0.772583 0.719667,-1.23825 1.344084,-1.23825 0.677333,0 1.058333,0.41275 1.058333,1.23825 v 2.148417 c -0.0635,0 -0.116417,0 -0.169333,0 -0.370417,0 -0.518584,0.07408 -0.518584,0.359833 0,0.338667 0.148167,0.370417 0.518584,0.370417 h 1.143 c 0.370416,0 0.550333,-0.07408 0.550333,-0.370417 0,-0.264583 -0.15875,-0.359833 -0.486833,-0.359833 -0.07408,0 -0.15875,0 -0.232834,0 v -2.338917 c 0,-1.195916 -0.6985,-1.8415 -1.68275,-1.8415 -0.53975,0 -1.016,0.232834 -1.513416,0.6985 v -0.34925 c 0,-0.127 -0.09525,-0.211666 -0.296334,-0.211666 h -0.486833 c -0.47625,0 -0.709083,0 -0.709083,0.359833 0,0.264583 0.148166,0.370417 0.47625,0.370417 0.07408,0 0.15875,0 0.232833,0 z"
         style="font-style:normal;font-variant:normal;font-weight:normal;font-stretch:normal;font-size:medium;line-height:1.25;font-family:'Courier 10 Pitch';-inkscape-font-specification:'Courier 10 Pitch';letter-spacing:0px;word-spacing:0px;fill:#000000;fill-opacity:1;stroke:none;stroke-width:0.26458332"
         id="path2836"
         inkscape:connector-curvature="0" />
      <path
         d="m 69.680384,26.317296 v 2.360084 c 0,0.338666 0.148167,0.518583 0.433917,0.518583 h 0.624416 c 0.243417,0 0.370417,-0.127 0.370417,-0.370417 0,-0.296333 -0.148167,-0.359833 -0.53975,-0.359833 -0.03175,0 -0.0635,0 -0.09525,0 v -2.338917 c 0,-1.2065 -0.3175,-1.8415 -1.27,-1.8415 -0.497416,0 -0.867833,0.211667 -1.153583,0.635 -0.148167,-0.423333 -0.465667,-0.635 -0.941917,-0.635 -0.402166,0 -0.719666,0.137584 -0.994833,0.4445 -0.02117,-0.254 -0.07408,-0.306916 -0.296333,-0.306916 h -0.79375 c -0.275167,0 -0.402167,0.116416 -0.402167,0.359833 0,0.264583 0.148167,0.370417 0.47625,0.370417 0.07408,0 0.15875,0 0.232833,0 v 3.312583 c -0.04233,0 -0.07408,0 -0.105833,0 -0.423333,0 -0.60325,0.0635 -0.60325,0.359833 0,0.243417 0.127,0.370417 0.402167,0.370417 h 1.375833 c 0.306917,0 0.423333,-0.07408 0.423333,-0.370417 0,-0.28575 -0.137583,-0.370416 -0.497416,-0.370416 -0.0635,0 -0.137584,0.01058 -0.22225,0.01058 v -2.846917 c 0.1905,-0.359833 0.4445,-0.53975 0.762,-0.53975 0.391583,0 0.677333,0.306917 0.677333,0.836084 0,0.0635 0,0.201083 0,0.402166 v 2.180167 c 0,0.05292 0,0.09525 0,0.137583 0,0.402167 0.02117,0.560917 0.359833,0.560917 h 0.656167 c 0.243417,0 0.359833,-0.127 0.359833,-0.370417 0,-0.296333 -0.148166,-0.359833 -0.53975,-0.359833 -0.03175,0 -0.0635,0 -0.09525,0 v -2.148417 c 0,-0.8255 0.359834,-1.23825 0.836084,-1.23825 0.518583,0 0.560916,0.455084 0.560916,1.23825 z"
         style="font-style:normal;font-variant:normal;font-weight:normal;font-stretch:normal;font-size:medium;line-height:1.25;font-family:'Courier 10 Pitch';-inkscape-font-specification:'Courier 10 Pitch';letter-spacing:0px;word-spacing:0px;fill:#000000;fill-opacity:1;stroke:none;stroke-width:0.26458332"
         id="path2838"
         inkscape:connector-curvature="0" />
      <path
         d="m 75.337836,28.539796 0.05292,0.3175 c 0.04233,0.22225 0.169333,0.338667 0.359833,0.338667 h 0.814917 c 0.275166,0 0.41275,-0.127 0.41275,-0.370417 0,-0.306916 -0.179917,-0.359833 -0.613834,-0.359833 h -0.264583 v -2.338917 c 0,-1.248833 -0.613833,-1.830916 -1.93675,-1.830916 -1.164167,0 -1.926167,0.370416 -1.926167,0.73025 0,0.264583 0.15875,0.433916 0.34925,0.433916 0.402167,0 0.8255,-0.433916 1.55575,-0.433916 0.79375,0 1.164167,0.370416 1.164167,1.164166 0,0.01058 0,0.02117 0,0.03175 -0.423333,-0.105833 -0.8255,-0.15875 -1.227667,-0.15875 -1.534583,0 -2.391833,0.645584 -2.391833,1.7145 0,0.910167 0.677333,1.545167 1.7145,1.545167 0.709083,0 1.375833,-0.275167 1.93675,-0.783167 z m -0.03175,-1.629833 v 0.560917 c 0,0.465666 -0.846667,1.058333 -1.778,1.058333 -0.60325,0 -1.016,-0.34925 -1.016,-0.804333 0,-0.582084 0.60325,-0.994834 1.703917,-0.994834 0.381,0 0.740833,0.0635 1.090083,0.179917 z"
         style="font-style:normal;font-variant:normal;font-weight:normal;font-stretch:normal;font-size:medium;line-height:1.25;font-family:'Courier 10 Pitch';-inkscape-font-specification:'Courier 10 Pitch';letter-spacing:0px;word-spacing:0px;fill:#000000;fill-opacity:1;stroke:none;stroke-width:0.26458332"
         id="path2840"
         inkscape:connector-curvature="0" />
      <path
         d="m 81.937205,24.70863 h -2.032 v -1.04775 c 0,-0.508 -0.04233,-0.719667 -0.41275,-0.719667 -0.275167,0 -0.402167,0.148167 -0.402167,0.433917 0,0.137583 0,0.232833 0,0.275166 v 1.058334 h -0.5715 c -0.497417,0 -0.709083,0.03175 -0.709083,0.370416 0,0.254 0.127,0.359834 0.41275,0.359834 h 0.867833 v 1.725083 c 0,0.05292 0,0.105833 0,0.15875 0,0.47625 0.01058,0.889 0.1905,1.195917 0.296333,0.518583 0.846667,0.772583 1.640417,0.772583 0.486833,0 1.026583,-0.137583 1.672166,-0.391583 0.381,-0.148167 0.5715,-0.296334 0.5715,-0.53975 0,-0.1905 -0.169333,-0.370417 -0.359833,-0.370417 -0.41275,0 -1.100667,0.550333 -1.93675,0.550333 -0.910167,0 -0.973667,-0.550333 -0.973667,-1.375833 V 25.43888 h 2.0955 c 0.28575,0 0.433917,-0.116417 0.433917,-0.359834 0,-0.264583 -0.15875,-0.370416 -0.486833,-0.370416 z"
         style="font-style:normal;font-variant:normal;font-weight:normal;font-stretch:normal;font-size:medium;line-height:1.25;font-family:'Courier 10 Pitch';-inkscape-font-specification:'Courier 10 Pitch';letter-spacing:0px;word-spacing:0px;fill:#000000;fill-opacity:1;stroke:none;stroke-width:0.26458332"
         id="path2842"
         inkscape:connector-curvature="0" />
      <path
         d="M 86.388156,28.465713 V 26.32788 c 0.687917,-0.783167 1.27,-1.195917 1.8415,-1.195917 0.402167,0 0.624417,0.3175 0.899584,0.3175 0.22225,0 0.455083,-0.232833 0.455083,-0.486833 0,-0.381 -0.381,-0.66675 -1.026583,-0.66675 -0.8255,0 -1.524,0.402166 -2.169584,1.217083 v -0.878417 c 0,-0.148166 -0.09525,-0.211666 -0.28575,-0.211666 h -1.17475 c -0.275166,0 -0.412749,0.116416 -0.412749,0.359833 0,0.264583 0.148166,0.370417 0.486833,0.370417 0.05292,0 0.148166,0 0.264583,0 h 0.34925 v 3.312583 h -0.910167 c -0.285749,0 -0.433916,0.116417 -0.433916,0.359833 0,0.243417 0.148167,0.370417 0.423333,0.370417 h 3.376083 c 0.306917,0 0.423334,-0.07408 0.423334,-0.370417 0,-0.254 -0.127,-0.359833 -0.391584,-0.359833 z"
         style="font-style:normal;font-variant:normal;font-weight:normal;font-stretch:normal;font-size:medium;line-height:1.25;font-family:'Courier 10 Pitch';-inkscape-font-specification:'Courier 10 Pitch';letter-spacing:0px;word-spacing:0px;fill:#000000;fill-opacity:1;stroke:none;stroke-width:0.26458332"
         id="path2844"
         inkscape:connector-curvature="0" />
      <path
         d="m 93.738945,28.465713 v -3.831167 c 0,-0.127 -0.09525,-0.211666 -0.296333,-0.211666 h -1.513417 c -0.275166,0 -0.41275,0.116416 -0.41275,0.359833 0,0.243417 0.148167,0.370417 0.433917,0.370417 h 1.005417 v 3.312583 h -1.576917 c -0.28575,0 -0.433916,0.116417 -0.433916,0.359833 0,0.243417 0.137583,0.370417 0.412749,0.370417 h 4.011084 c 0.306916,0 0.423333,-0.07408 0.423333,-0.370417 0,-0.254 -0.127,-0.359833 -0.391583,-0.359833 z M 92.775862,22.93063 c 0,0.423333 0.105833,0.508 0.53975,0.508 0.497417,0 0.529167,-0.116417 0.529167,-0.656167 0,-0.53975 -0.05292,-0.6985 -0.529167,-0.6985 -0.47625,0 -0.53975,0.15875 -0.53975,0.846667 z"
         style="font-style:normal;font-variant:normal;font-weight:normal;font-stretch:normal;font-size:medium;line-height:1.25;font-family:'Courier 10 Pitch';-inkscape-font-specification:'Courier 10 Pitch';letter-spacing:0px;word-spacing:0px;fill:#000000;fill-opacity:1;stroke:none;stroke-width:0.26458332"
         id="path2846"
         inkscape:connector-curvature="0" />
      <path
         d="m 98.496818,28.465713 1.185333,-1.27 1.301749,1.27 h -0.28575 c -0.30692,0 -0.46567,0.148167 -0.46567,0.370417 0,0.254 0.17992,0.359833 0.52917,0.359833 h 1.05833 c 0.45509,0 0.62442,-0.05292 0.62442,-0.359833 0,-0.232834 -0.13758,-0.370417 -0.40217,-0.370417 -0.0106,0 -0.0318,0 -0.0529,0 l -1.80975,-1.767417 1.48166,-1.545166 c 0.0529,0 0.10584,0.01058 0.14817,0.01058 0.35983,0 0.53975,-0.116417 0.53975,-0.381 0,-0.22225 -0.14817,-0.359833 -0.35983,-0.359833 h -1.34409 c -0.35983,0 -0.52916,0.105833 -0.52916,0.370416 0,0.243417 0.1905,0.359834 0.5715,0.359834 0.0423,0 0.0741,0 0.10583,0 l -1.058332,1.090083 -1.11125,-1.090083 c 0.391583,0 0.592666,-0.116417 0.592666,-0.359834 0,-0.264583 -0.169333,-0.370416 -0.529166,-0.370416 h -1.058334 c -0.455083,0 -0.634999,0.0635 -0.634999,0.370416 0,0.275167 0.148166,0.359834 0.529166,0.359834 0.02117,0 0.05292,0 0.07408,0 l 1.640417,1.598083 -1.672167,1.7145 c -0.04233,0 -0.07408,0 -0.105833,0 -0.381,0 -0.582083,0.105833 -0.582083,0.338667 0,0.254 0.148167,0.391583 0.359833,0.391583 h 1.418167 c 0.34925,0 0.53975,-0.105833 0.53975,-0.359833 0,-0.232834 -0.201084,-0.381 -0.550334,-0.381 -0.05292,0 -0.09525,0.01058 -0.148166,0.01058 z"
         style="font-style:normal;font-variant:normal;font-weight:normal;font-stretch:normal;font-size:medium;line-height:1.25;font-family:'Courier 10 Pitch';-inkscape-font-specification:'Courier 10 Pitch';letter-spacing:0px;word-spacing:0px;fill:#000000;fill-opacity:1;stroke:none;stroke-width:0.26458332"
         id="path2848"
         inkscape:connector-curvature="0" />
      <path
         style="fill:#000000;fill-opacity:1;stroke:none;stroke-width:0.22611839;stroke-linejoin:miter;stroke-miterlimit:4;stroke-dasharray:none;stroke-opacity:1"
         inkscape:transform-center-x="0.18899004"
         inkscape:transform-center-y="-5.8130813"
         d="m 52.636175,18.510501 4.02953,7.241359 4.02953,7.241356 -8.285967,-0.131005 -8.285963,-0.131 4.256433,-7.110356 z"
         id="path941-28-5"
         inkscape:connector-curvature="0" />
      <path
         style="fill:#0446fe;fill-opacity:1;stroke:none;stroke-width:0.2261184;stroke-linejoin:miter;stroke-miterlimit:4;stroke-dasharray:none;stroke-opacity:1"
         inkscape:transform-center-x="0.18899004"
         inkscape:transform-center-y="-5.8130813"
         d="m 52.69473,10.410071 4.02953,7.241357 4.02953,7.241358 -8.285963,-0.131005 -8.285967,-0.131 4.256437,-7.110356 z"
         id="path941-2-2-0"
         inkscape:connector-curvature="0" />
      <path
         d="m 85.44879,33.771752 c 0,0.359833 0.268111,0.613833 0.677333,0.613833 0.416278,0 0.684389,-0.254 0.684389,-0.613833 0,-0.359833 -0.268111,-0.613833 -0.684389,-0.613833 -0.409222,0 -0.677333,0.254 -0.677333,0.613833 z"
         style="font-style:italic;font-variant:normal;font-weight:bold;font-stretch:normal;font-size:7.05555534px;line-height:1.25;font-family:'Courier 10 Pitch';-inkscape-font-specification:'Courier 10 Pitch Bold Italic';letter-spacing:0px;word-spacing:0px;fill:#000000;fill-opacity:1;stroke:none;stroke-width:0.26458332"
         id="path2817"
         inkscape:connector-curvature="0" />
      <path
         d="m 91.584036,33.538919 -0.656166,-0.867834 0.903111,-0.797277 c 0.296333,-0.02117 0.451555,-0.176389 0.451555,-0.4445 0,-0.211667 -0.105833,-0.310445 -0.352777,-0.310445 h -0.515056 c -0.352778,0 -0.529167,0.162278 -0.529167,0.486833 0,0.09878 0.02822,0.155223 0.119945,0.211667 l -0.430389,0.395111 -0.296333,-0.395111 c 0.225777,-0.02117 0.324555,-0.141111 0.324555,-0.381 0,-0.225778 -0.105833,-0.3175 -0.352778,-0.3175 h -0.649111 c -0.324555,0 -0.508,0.155222 -0.508,0.4445 0,0.204611 0.08467,0.275167 0.310445,0.310445 l 0.606777,0.804333 -0.966611,0.860778 c -0.296333,0.02117 -0.451555,0.183444 -0.451555,0.451555 0,0.211667 0.112889,0.310445 0.359833,0.310445 h 0.515056 c 0.352778,0 0.522111,-0.162278 0.522111,-0.486834 0,-0.09878 -0.02822,-0.162278 -0.119945,-0.218722 l 0.500945,-0.4445 0.331611,0.4445 c -0.232833,0.02117 -0.3175,0.148167 -0.3175,0.381 0,0.225778 0.105833,0.324556 0.352778,0.324556 h 0.649111 c 0.324555,0 0.508,-0.162278 0.508,-0.451556 0,-0.204611 -0.08467,-0.275167 -0.310445,-0.310444 z"
         style="font-style:italic;font-variant:normal;font-weight:bold;font-stretch:normal;font-size:7.05555534px;line-height:1.25;font-family:'Courier 10 Pitch';-inkscape-font-specification:'Courier 10 Pitch Bold Italic';letter-spacing:0px;word-spacing:0px;fill:#000000;fill-opacity:1;stroke:none;stroke-width:0.26458332"
         id="path2819"
         inkscape:connector-curvature="0" />
      <path
         d="m 93.344838,31.873808 0.543278,2.356555 -0.465666,0.684389 h -0.225778 c -0.388056,0 -0.592667,0.09878 -0.592667,0.4445 0,0.211667 0.105833,0.310444 0.331611,0.310444 h 1.291167 c 0.345722,0 0.522111,-0.155222 0.522111,-0.4445 0,-0.211666 -0.112889,-0.310444 -0.359833,-0.310444 h -0.162278 l 2.017889,-3.040944 c 0.296333,-0.02117 0.451555,-0.176389 0.451555,-0.4445 0,-0.211667 -0.112889,-0.310445 -0.359833,-0.310445 h -0.776111 c -0.254,0 -0.4445,0.169333 -0.4445,0.4445 0,0.204611 0.08467,0.275167 0.310444,0.310445 l -0.924277,1.460499 -0.296334,-1.460499 c 0.3175,-0.01411 0.479778,-0.169334 0.479778,-0.4445 0,-0.211667 -0.112889,-0.310445 -0.359833,-0.310445 H 93.48595 c -0.254,0 -0.451556,0.169333 -0.451556,0.4445 0,0.204611 0.08467,0.275167 0.310444,0.310445 z"
         style="font-style:italic;font-variant:normal;font-weight:bold;font-stretch:normal;font-size:7.05555534px;line-height:1.25;font-family:'Courier 10 Pitch';-inkscape-font-specification:'Courier 10 Pitch Bold Italic';letter-spacing:0px;word-spacing:0px;fill:#000000;fill-opacity:1;stroke:none;stroke-width:0.26458332"
         id="path2821"
         inkscape:connector-curvature="0" />
      <path
         d="m 97.596251,34.300919 h 2.166056 c 0.1905,0 0.275163,-0.07761 0.317503,-0.268112 l 0.14111,-0.712611 c 0.007,-0.03528 0.0141,-0.07056 0.0141,-0.105833 0,-0.169333 -0.11289,-0.275167 -0.324557,-0.275167 -0.169333,0 -0.289278,0.105834 -0.345722,0.324556 l -0.09878,0.402167 H 98.43585 l 1.96145,-1.862667 c 0.11289,-0.105833 0.17639,-0.239889 0.17639,-0.345722 0,-0.232834 -0.11995,-0.338667 -0.36689,-0.338667 h -2.032005 c -0.211667,0 -0.303389,0.05645 -0.345723,0.254 l -0.148166,0.663222 c -0.0071,0.03528 -0.01411,0.07056 -0.01411,0.105834 0,0.162277 0.105833,0.275166 0.324555,0.275166 0.169334,0 0.303389,-0.119944 0.345722,-0.324555 l 0.07056,-0.338667 h 0.987778 l -1.989667,1.862667 c -0.112889,0.105833 -0.169333,0.232833 -0.169333,0.338666 0,0.232834 0.112889,0.345723 0.359833,0.345723 z"
         style="font-style:italic;font-variant:normal;font-weight:bold;font-stretch:normal;font-size:7.05555534px;line-height:1.25;font-family:'Courier 10 Pitch';-inkscape-font-specification:'Courier 10 Pitch Bold Italic';letter-spacing:0px;word-spacing:0px;fill:#000000;fill-opacity:1;stroke:none;stroke-width:0.26458332"
         id="path2823"
         inkscape:connector-curvature="0" />
    </g>
  </g>
</svg>
