<?xml version="1.0" encoding="UTF-8" standalone="no"?>
<!-- Created with Inkscape (http://www.inkscape.org/) -->

<svg
   xmlns:dc="http://purl.org/dc/elements/1.1/"
   xmlns:cc="http://creativecommons.org/ns#"
   xmlns:rdf="http://www.w3.org/1999/02/22-rdf-syntax-ns#"
   xmlns:svg="http://www.w3.org/2000/svg"
   xmlns="http://www.w3.org/2000/svg"
   xmlns:sodipodi="http://sodipodi.sourceforge.net/DTD/sodipodi-0.dtd"
   xmlns:inkscape="http://www.inkscape.org/namespaces/inkscape"
   width="297mm"
   height="210mm"
   viewBox="0 0 297 210"
   version="1.1"
   id="svg4857"
   inkscape:version="0.92.3 (2405546, 2018-03-11)"
   sodipodi:docname="logo-normansart.club.svg">
  <defs
     id="defs4851" />
  <sodipodi:namedview
     id="base"
     pagecolor="#ffffff"
     bordercolor="#666666"
     borderopacity="1.0"
     inkscape:pageopacity="0.0"
     inkscape:pageshadow="2"
     inkscape:zoom="0.35"
     inkscape:cx="-108.57143"
     inkscape:cy="560"
     inkscape:document-units="mm"
     inkscape:current-layer="layer1"
     showgrid="false"
     inkscape:window-width="1920"
     inkscape:window-height="1025"
     inkscape:window-x="0"
     inkscape:window-y="27"
     inkscape:window-maximized="1" />
  <metadata
     id="metadata4854">
    <rdf:RDF>
      <cc:Work
         rdf:about="">
        <dc:format>image/svg+xml</dc:format>
        <dc:type
           rdf:resource="http://purl.org/dc/dcmitype/StillImage" />
        <dc:title></dc:title>
      </cc:Work>
    </rdf:RDF>
  </metadata>
  <g
     inkscape:label="Layer 1"
     inkscape:groupmode="layer"
     id="layer1"
     transform="translate(0,-87)">
    <g
       id="g2783"
       transform="matrix(3.7837547,0,0,3.7837547,-193.77853,-461.50197)">
      <rect
         y="158.7291"
         x="51.930492"
         height="27.286732"
         width="77.122627"
         id="rect1565-4"
         style="fill:#fffcf6;fill-opacity:0.64705882;stroke:none;stroke-width:0.80138892;stroke-linejoin:miter;stroke-miterlimit:4;stroke-dasharray:none;stroke-opacity:1" />
      <path
         d="m 57.402134,176.52103 c -0.04233,0 -0.07408,0 -0.105833,0 -0.423333,0 -0.60325,0.0635 -0.60325,0.35983 0,0.24342 0.137583,0.37042 0.433917,0.37042 0.137583,0 0.232833,0 0.275166,0 h 0.941917 c 0.391583,0 0.550333,-0.0212 0.550333,-0.37042 0,-0.28575 -0.137583,-0.37042 -0.497416,-0.37042 -0.0635,0 -0.137584,0.0106 -0.22225,0.0106 v -2.14842 c 0,-0.77258 0.719666,-1.23825 1.344083,-1.23825 0.677333,0 1.058333,0.41275 1.058333,1.23825 v 2.14842 c -0.0635,0 -0.116417,0 -0.169333,0 -0.370417,0 -0.518583,0.0741 -0.518583,0.35983 0,0.33867 0.148166,0.37042 0.518583,0.37042 h 1.143 c 0.370416,0 0.550333,-0.0741 0.550333,-0.37042 0,-0.26458 -0.15875,-0.35983 -0.486833,-0.35983 -0.07408,0 -0.15875,0 -0.232834,0 v -2.33892 c 0,-1.19592 -0.6985,-1.8415 -1.682749,-1.8415 -0.53975,0 -1.016,0.23283 -1.513417,0.6985 v -0.34925 c 0,-0.127 -0.09525,-0.21167 -0.296333,-0.21167 h -0.486834 c -0.47625,0 -0.709083,0 -0.709083,0.35984 0,0.26458 0.148167,0.37041 0.47625,0.37041 0.07408,0 0.15875,0 0.232833,0 z"
         style="font-style:normal;font-variant:normal;font-weight:normal;font-stretch:normal;font-size:medium;line-height:1.25;font-family:'Courier 10 Pitch';-inkscape-font-specification:'Courier 10 Pitch';letter-spacing:0px;word-spacing:0px;fill:#000000;fill-opacity:1;stroke:none;stroke-width:0.26458332"
         id="path1381"
         inkscape:connector-curvature="0" />
      <path
         d="m 68.393587,174.87003 c 0,-1.42875 -1.058333,-2.50825 -2.69875,-2.50825 -1.640417,0 -2.709333,1.06891 -2.709333,2.50825 0,1.43933 1.068916,2.50825 2.709333,2.50825 1.640417,0 2.69875,-1.06892 2.69875,-2.50825 z m -2.69875,1.78858 c -1.068917,0 -1.80975,-0.762 -1.80975,-1.78858 0,-1.02659 0.740833,-1.79917 1.80975,-1.79917 1.068917,0 1.80975,0.77258 1.80975,1.79917 0,1.03716 -0.740833,1.78858 -1.80975,1.78858 z"
         style="font-style:normal;font-variant:normal;font-weight:normal;font-stretch:normal;font-size:medium;line-height:1.25;font-family:'Courier 10 Pitch';-inkscape-font-specification:'Courier 10 Pitch';letter-spacing:0px;word-spacing:0px;fill:#000000;fill-opacity:1;stroke:none;stroke-width:0.26458332"
         id="path1383"
         inkscape:connector-curvature="0" />
      <path
         d="m 71.553373,176.52103 v -2.13784 c 0.687917,-0.78316 1.27,-1.19591 1.8415,-1.19591 0.402167,0 0.624417,0.3175 0.899583,0.3175 0.22225,0 0.455084,-0.23284 0.455084,-0.48684 0,-0.381 -0.381,-0.66675 -1.026584,-0.66675 -0.8255,0 -1.524,0.40217 -2.169583,1.21709 v -0.87842 c 0,-0.14817 -0.09525,-0.21167 -0.28575,-0.21167 h -1.17475 c -0.275166,0 -0.41275,0.11642 -0.41275,0.35984 0,0.26458 0.148167,0.37041 0.486834,0.37041 0.05292,0 0.148166,0 0.264583,0 h 0.34925 v 3.31259 h -0.910167 c -0.28575,0 -0.433916,0.11641 -0.433916,0.35983 0,0.24342 0.148166,0.37042 0.423333,0.37042 h 3.376083 c 0.306917,0 0.423333,-0.0741 0.423333,-0.37042 0,-0.254 -0.127,-0.35983 -0.391583,-0.35983 z"
         style="font-style:normal;font-variant:normal;font-weight:normal;font-stretch:normal;font-size:medium;line-height:1.25;font-family:'Courier 10 Pitch';-inkscape-font-specification:'Courier 10 Pitch';letter-spacing:0px;word-spacing:0px;fill:#000000;fill-opacity:1;stroke:none;stroke-width:0.26458332"
         id="path1385"
         inkscape:connector-curvature="0" />
      <path
         d="m 80.311744,174.37261 v 2.36008 c 0,0.33867 0.148166,0.51859 0.433916,0.51859 h 0.624417 c 0.243416,0 0.370416,-0.127 0.370416,-0.37042 0,-0.29633 -0.148166,-0.35983 -0.53975,-0.35983 -0.03175,0 -0.0635,0 -0.09525,0 v -2.33892 c 0,-1.2065 -0.3175,-1.8415 -1.269999,-1.8415 -0.497417,0 -0.867834,0.21167 -1.153584,0.635 -0.148166,-0.42333 -0.465666,-0.635 -0.941916,-0.635 -0.402167,0 -0.719667,0.13758 -0.994834,0.4445 -0.02117,-0.254 -0.07408,-0.30692 -0.296333,-0.30692 h -0.79375 c -0.275167,0 -0.402167,0.11642 -0.402167,0.35984 0,0.26458 0.148167,0.37041 0.47625,0.37041 0.07408,0 0.15875,0 0.232834,0 v 3.31259 c -0.04233,0 -0.07408,0 -0.105834,0 -0.423333,0 -0.60325,0.0635 -0.60325,0.35983 0,0.24342 0.127,0.37042 0.402167,0.37042 h 1.375833 c 0.306917,0 0.423334,-0.0741 0.423334,-0.37042 0,-0.28575 -0.137584,-0.37042 -0.497417,-0.37042 -0.0635,0 -0.137583,0.0106 -0.22225,0.0106 v -2.84692 c 0.1905,-0.35983 0.4445,-0.53975 0.762,-0.53975 0.391583,0 0.677333,0.30692 0.677333,0.83608 0,0.0635 0,0.20109 0,0.40217 v 2.18017 c 0,0.0529 0,0.0952 0,0.13758 0,0.40217 0.02117,0.56092 0.359834,0.56092 h 0.656166 c 0.243417,0 0.359834,-0.127 0.359834,-0.37042 0,-0.29633 -0.148167,-0.35983 -0.53975,-0.35983 -0.03175,0 -0.0635,0 -0.09525,0 v -2.14842 c 0,-0.8255 0.359833,-1.23825 0.836083,-1.23825 0.518583,0 0.560917,0.45508 0.560917,1.23825 z"
         style="font-style:normal;font-variant:normal;font-weight:normal;font-stretch:normal;font-size:medium;line-height:1.25;font-family:'Courier 10 Pitch';-inkscape-font-specification:'Courier 10 Pitch';letter-spacing:0px;word-spacing:0px;fill:#000000;fill-opacity:1;stroke:none;stroke-width:0.26458332"
         id="path1387"
         inkscape:connector-curvature="0" />
      <path
         d="m 95.601353,176.52103 c -0.04233,0 -0.07408,0 -0.105833,0 -0.423334,0 -0.60325,0.0635 -0.60325,0.35983 0,0.24342 0.137583,0.37042 0.433916,0.37042 0.137584,0 0.232834,0 0.275167,0 h 0.941917 c 0.391583,0 0.550333,-0.0212 0.550333,-0.37042 0,-0.28575 -0.137583,-0.37042 -0.497417,-0.37042 -0.0635,0 -0.137583,0.0106 -0.22225,0.0106 v -2.14842 c 0,-0.77258 0.719667,-1.23825 1.344084,-1.23825 0.677333,0 1.058333,0.41275 1.058333,1.23825 v 2.14842 c -0.0635,0 -0.116417,0 -0.169333,0 -0.370417,0 -0.518584,0.0741 -0.518584,0.35983 0,0.33867 0.148167,0.37042 0.518584,0.37042 h 1.143 c 0.37042,0 0.55033,-0.0741 0.55033,-0.37042 0,-0.26458 -0.15875,-0.35983 -0.48683,-0.35983 -0.07408,0 -0.15875,0 -0.232834,0 v -2.33892 c 0,-1.19592 -0.6985,-1.8415 -1.68275,-1.8415 -0.53975,0 -1.016,0.23283 -1.513416,0.6985 v -0.34925 c 0,-0.127 -0.09525,-0.21167 -0.296334,-0.21167 h -0.486833 c -0.47625,0 -0.709083,0 -0.709083,0.35984 0,0.26458 0.148166,0.37041 0.47625,0.37041 0.07408,0 0.15875,0 0.232833,0 z"
         style="font-style:normal;font-variant:normal;font-weight:normal;font-stretch:normal;font-size:medium;line-height:1.25;font-family:'Courier 10 Pitch';-inkscape-font-specification:'Courier 10 Pitch';letter-spacing:0px;word-spacing:0px;fill:#000000;fill-opacity:1;stroke:none;stroke-width:0.26458332"
         id="path1389"
         inkscape:connector-curvature="0" />
      <path
         d="m 101.62922,176.88086 c 0,0.32808 0.13759,0.49742 0.381,0.49742 0.11642,0 0.28575,-0.0847 0.52917,-0.24342 0.58208,0.14817 1.10067,0.23283 1.56633,0.23283 1.29117,0 2.02142,-0.64558 2.02142,-1.53458 0,-1.016 -0.70908,-1.41817 -2.07433,-1.44992 -1.016,-0.0212 -1.60867,-0.0741 -1.60867,-0.62441 0,-0.41275 0.39158,-0.762 1.0795,-0.762 0.53975,0 0.92075,0.127 1.31233,0.47625 0.30692,0.27516 0.41275,0.53975 0.64559,0.53975 0.254,0 0.34925,-0.17992 0.34925,-0.51859 v -0.60325 c 0,-0.34925 -0.11642,-0.51858 -0.34925,-0.51858 -0.27517,0 -0.381,0.20108 -0.52917,0.20108 -0.14817,0 -0.56092,-0.23283 -1.31233,-0.23283 -1.28059,0 -1.98967,0.59267 -1.98967,1.44992 0,0.92075 0.75142,1.42875 2.159,1.42875 0.14817,0 0.24342,0 0.29633,0 0.78317,0 1.16417,0.14816 1.16417,0.67733 0,0.46567 -0.46567,0.80433 -1.21708,0.80433 -0.6985,0 -1.29117,-0.254 -1.56634,-0.61383 -0.20108,-0.26458 -0.16933,-0.55033 -0.48683,-0.55033 -0.27517,0 -0.37042,0.14816 -0.37042,0.42333 z"
         style="font-style:normal;font-variant:normal;font-weight:normal;font-stretch:normal;font-size:medium;line-height:1.25;font-family:'Courier 10 Pitch';-inkscape-font-specification:'Courier 10 Pitch';letter-spacing:0px;word-spacing:0px;fill:#000000;fill-opacity:1;stroke:none;stroke-width:0.26458332"
         id="path1391"
         inkscape:connector-curvature="0" />
      <path
         d="m 111.52001,177.25128 h 0.64558 c 0.30692,0 0.4445,-0.127 0.4445,-0.41275 0,-0.1905 -0.0952,-0.29634 -0.30692,-0.29634 h -0.49741 l 0.55033,-2.55058 c 0.0318,-0.13758 0.0423,-0.27517 0.0423,-0.40217 0,-0.75141 -0.52917,-1.23825 -1.57692,-1.23825 -1.16416,0 -2.08491,0.42334 -2.08491,0.83609 0,0.16933 0.13758,0.29633 0.33866,0.29633 0.32809,0 0.87842,-0.43392 1.651,-0.43392 0.56092,0 0.85725,0.254 0.85725,0.75142 0,0.10583 -0.0212,0.28575 -0.0847,0.53975 -0.40216,-0.11642 -0.78316,-0.17992 -1.16416,-0.17992 -1.62984,0 -2.68817,0.81492 -2.68817,1.80975 0,0.81492 0.60325,1.37584 1.53458,1.37584 0.6985,0 1.37584,-0.3175 1.94734,-0.9525 -0.0529,0.23283 -0.0847,0.39158 -0.0847,0.508 0,0.3175 0.127,0.34925 0.47625,0.34925 z m -0.15875,-2.29659 -0.0529,0.28575 c -0.13759,0.71967 -1.05834,1.35467 -1.95792,1.35467 -0.56092,0 -0.86783,-0.27517 -0.86783,-0.6985 0,-0.60325 0.67733,-1.11125 1.88383,-1.11125 0.33867,0 0.65617,0.0635 0.99483,0.16933 z"
         style="font-style:italic;font-variant:normal;font-weight:normal;font-stretch:normal;font-size:medium;line-height:1.25;font-family:'Courier 10 Pitch';-inkscape-font-specification:'Courier 10 Pitch Italic';letter-spacing:0px;word-spacing:0px;fill:#000000;fill-opacity:1;stroke:none;stroke-width:0.26458332"
         id="path1393"
         inkscape:connector-curvature="0" />
      <path
         d="m 116.48954,173.57886 0.20109,-0.85725 c 0.0106,-0.0317 0.0106,-0.0635 0.0106,-0.0952 0,-0.11642 -0.0741,-0.14817 -0.24342,-0.14817 h -1.27 c -0.30692,0 -0.46567,0.14817 -0.46567,0.41275 0,0.20109 0.10584,0.29634 0.30692,0.29634 h 0.78317 l -0.70909,3.35491 h -0.762 c -0.30691,0 -0.45508,0.14817 -0.45508,0.42334 0,0.1905 0.0953,0.28575 0.30692,0.28575 h 3.29141 c 0.30692,0 0.46567,-0.14817 0.46567,-0.41275 0,-0.20109 -0.10583,-0.29634 -0.30692,-0.29634 h -1.78858 l 0.46567,-2.13783 c 0.85725,-0.78317 1.50283,-1.2065 2.0955,-1.2065 0.40216,0 0.56091,0.32808 0.81491,0.32808 0.28575,0 0.53975,-0.24341 0.53975,-0.53975 0,-0.37041 -0.32808,-0.635 -0.92075,-0.635 -0.75141,0 -1.53458,0.40217 -2.36008,1.22767 z"
         style="font-style:italic;font-variant:normal;font-weight:normal;font-stretch:normal;font-size:medium;line-height:1.25;font-family:'Courier 10 Pitch';-inkscape-font-specification:'Courier 10 Pitch Italic';letter-spacing:0px;word-spacing:0px;fill:#000000;fill-opacity:1;stroke:none;stroke-width:0.26458332"
         id="path1395"
         inkscape:connector-curvature="0" />
      <path
         d="m 121.75541,173.49419 -0.43392,2.10609 c -0.0423,0.20108 -0.0635,0.381 -0.0635,0.53975 0,0.79375 0.49742,1.2065 1.43934,1.2065 0.56091,0 1.15358,-0.11642 1.778,-0.35984 0.45508,-0.16933 0.66675,-0.29633 0.66675,-0.58208 0,-0.16933 -0.14817,-0.29633 -0.381,-0.29633 -0.34925,0 -1.016,0.51858 -1.97909,0.51858 -0.45508,0 -0.70908,-0.24342 -0.70908,-0.65617 0,-0.0847 0.0212,-0.21166 0.0529,-0.35983 l 0.43392,-2.11667 h 1.9685 c 0.37041,0 0.56091,-0.13758 0.56091,-0.42333 0,-0.24342 -0.127,-0.30692 -0.40216,-0.30692 h -1.9685 l 0.254,-1.17475 c 0.0318,-0.14816 0.0423,-0.23283 0.0423,-0.26458 0,-0.15875 -0.16934,-0.32808 -0.37042,-0.32808 -0.23283,0 -0.39158,0.17991 -0.46567,0.52916 l -0.27516,1.23825 h -0.71967 c -0.37042,0 -0.56092,0.14817 -0.56092,0.43392 0,0.24342 0.127,0.29633 0.40217,0.29633 z"
         style="font-style:italic;font-variant:normal;font-weight:normal;font-stretch:normal;font-size:medium;line-height:1.25;font-family:'Courier 10 Pitch';-inkscape-font-specification:'Courier 10 Pitch Italic';letter-spacing:0px;word-spacing:0px;fill:#000000;fill-opacity:1;stroke:none;stroke-width:0.26458332"
         id="path1397"
         inkscape:connector-curvature="0" />
      <path
         id="path941-5-2-6-2"
         d="m 88.924482,162.32538 5.507125,9.89671 5.507125,9.8967 -11.324359,-0.17904 -11.324358,-0.17904 5.817233,-9.71766 z"
         inkscape:transform-center-y="-5.8130813"
         inkscape:transform-center-x="0.18899004"
         style="fill:none;fill-opacity:1;stroke:#000000;stroke-width:0.54696304;stroke-linejoin:miter;stroke-miterlimit:4;stroke-dasharray:none;stroke-opacity:1"
         inkscape:connector-curvature="0" />
      <path
         id="path941-5-2-6-1-1"
         d="m 88.988501,165.21617 4.343863,7.80623 4.343862,7.80624 -8.932329,-0.14122 -8.932328,-0.14123 4.588466,-7.66501 z"
         inkscape:transform-center-y="-4.585188"
         inkscape:transform-center-x="0.1490728"
         style="fill:#000000;fill-opacity:1;stroke:#000000;stroke-width:0.43142879;stroke-linejoin:miter;stroke-miterlimit:4;stroke-dasharray:none;stroke-opacity:1"
         inkscape:connector-curvature="0" />
      <path
         d="m 83.959281,179.69801 c 0.184609,0.12009 0.404876,0.068 0.542162,-0.14084 0.139652,-0.21246 0.09929,-0.43407 -0.08532,-0.55416 -0.184609,-0.12009 -0.404876,-0.068 -0.544528,0.14444 -0.137286,0.20886 -0.09692,0.43047 0.08769,0.55056 z"
         style="font-style:normal;font-variant:normal;font-weight:normal;font-stretch:normal;font-size:medium;line-height:1.25;font-family:'Courier 10 Pitch';-inkscape-font-specification:'Courier 10 Pitch';letter-spacing:0px;word-spacing:0px;fill:#faeb0c;fill-opacity:1;stroke:none;stroke-width:0.16176786"
         id="path2748"
         inkscape:connector-curvature="0" />
      <path
         d="m 84.798085,175.68601 c -0.180584,0.0625 -0.336522,0.19749 -0.471444,0.40276 -0.426066,0.64819 -0.268345,1.38309 0.314457,1.76221 0.419902,0.27315 0.878247,0.14976 1.221464,-0.37239 0.32428,-0.49334 0.36858,-1.0403 0.169487,-1.16981 -0.104975,-0.0683 -0.218753,-0.0446 -0.277909,0.0454 -0.08048,0.12243 0.01627,0.4784 -0.222791,0.8421 -0.163323,0.24847 -0.418397,0.29846 -0.635589,0.15717 -0.343885,-0.22369 -0.449548,-0.63685 -0.203376,-1.01137 0.142022,-0.21606 0.274855,-0.25303 0.456259,-0.22241 0.139383,0.0238 0.222369,0.0469 0.295726,-0.0647 0.07575,-0.11524 0.06282,-0.22133 -0.04607,-0.323 l -0.347215,-0.32871 c -0.01954,-0.0175 -0.03853,-0.0358 -0.05296,-0.0452 -0.10135,-0.0659 -0.168333,-0.0426 -0.23933,0.0654 -0.05917,0.09 -0.04648,0.16511 0.03953,0.26218 z"
         style="font-style:normal;font-variant:normal;font-weight:normal;font-stretch:normal;font-size:medium;line-height:1.25;font-family:'Courier 10 Pitch';-inkscape-font-specification:'Courier 10 Pitch';letter-spacing:0px;word-spacing:0px;fill:#faeb0c;fill-opacity:1;stroke:none;stroke-width:0.16176786"
         id="path2750"
         inkscape:connector-curvature="0" />
      <path
         d="m 87.250997,174.43074 -0.229601,0.3493 -1.574752,-1.57444 c -0.0076,-0.005 -0.01207,-0.013 -0.01937,-0.0177 -0.04708,-0.0306 -0.09135,-0.0183 -0.122125,0.0285 l -0.350319,0.53296 c -0.11125,0.16925 -0.08718,0.31342 0.06125,0.40998 0.10135,0.0659 0.205499,0.0411 0.25994,-0.0417 l 0.144388,-0.21966 1.31454,1.31778 -0.215399,0.3277 c -0.115981,0.17644 -0.09553,0.31827 0.05652,0.41718 0.108592,0.0706 0.194777,0.0496 0.270526,-0.0656 l 0.740876,-1.12713 c 0.115984,-0.17645 0.09553,-0.31828 -0.05289,-0.41483 -0.1086,-0.0706 -0.200773,-0.0483 -0.283619,0.0777 z"
         style="font-style:normal;font-variant:normal;font-weight:normal;font-stretch:normal;font-size:medium;line-height:1.25;font-family:'Courier 10 Pitch';-inkscape-font-specification:'Courier 10 Pitch';letter-spacing:0px;word-spacing:0px;fill:#faeb0c;fill-opacity:1;stroke:none;stroke-width:0.16176786"
         id="path2752"
         inkscape:connector-curvature="0" />
      <path
         d="m 87.740151,171.83121 0.458741,0.45778 c 0.198531,0.20111 0.215643,0.50527 0.109127,0.66732 -0.08521,0.12964 -0.183552,0.13764 -0.32106,0.0482 -0.02895,-0.0188 -0.06151,-0.04 -0.09302,-0.0708 l -0.780759,-0.78549 c -0.0076,-0.005 -0.01216,-0.013 -0.01937,-0.0177 -0.04707,-0.0306 -0.09135,-0.0183 -0.122125,0.0285 l -0.222499,0.33849 c -0.115984,0.17646 -0.09553,0.31828 0.05289,0.41483 0.108592,0.0706 0.199518,0.0424 0.279994,-0.08 l 0.545889,0.54532 c 0.06295,0.0615 0.124604,0.11704 0.19338,0.16178 0.285967,0.18602 0.561227,0.11318 0.738753,-0.1569 0.118352,-0.18005 0.155828,-0.41785 0.104169,-0.69307 l 0.0944,0.0922 c 0.0076,0.005 0.01216,0.013 0.01937,0.0177 0.04708,0.0306 0.09135,0.0183 0.122125,-0.0285 l 0.208298,-0.3169 c 0.11125,-0.16925 0.09079,-0.31107 -0.05763,-0.40762 -0.101359,-0.0659 -0.21149,-0.0399 -0.265932,0.0429 l -0.03077,0.0468 -0.987647,-0.98176 c -0.0076,-0.005 -0.01216,-0.013 -0.01937,-0.0177 -0.04347,-0.0283 -0.09135,-0.0183 -0.122124,0.0285 l -0.217767,0.33129 c -0.11125,0.16925 -0.08718,0.31343 0.05763,0.40763 0.108592,0.0706 0.194782,0.0496 0.27526,-0.0728 z"
         style="font-style:normal;font-variant:normal;font-weight:normal;font-stretch:normal;font-size:medium;line-height:1.25;font-family:'Courier 10 Pitch';-inkscape-font-specification:'Courier 10 Pitch';letter-spacing:0px;word-spacing:0px;fill:#faeb0c;fill-opacity:1;stroke:none;stroke-width:0.16176786"
         id="path2754"
         inkscape:connector-curvature="0" />
      <path
         d="m 88.956046,169.87921 c 0.130186,-0.19805 0.372167,-0.236 0.585734,-0.0971 0.34751,0.22606 0.452748,0.59268 0.28469,0.84836 -0.137288,0.20886 -0.367292,0.24431 -0.602585,0.0912 -0.325784,-0.21193 -0.435898,-0.58686 -0.267839,-0.84254 z m 0.601118,1.89215 0.213032,-0.3241 c 0.04971,-0.0756 0.01807,-0.1219 -0.04496,-0.19889 l -0.051,-0.064 c 0.237247,-0.0307 0.40182,-0.1396 0.541474,-0.35206 0.331383,-0.50415 0.174353,-1.1615 -0.383099,-1.52413 -0.474202,-0.30846 -0.905261,-0.21873 -1.160899,0.17018 -0.113617,0.17285 -0.159866,0.36896 -0.131596,0.57756 l -0.617316,-0.6175 c -0.0076,-0.005 -0.01207,-0.013 -0.01937,-0.0177 -0.04708,-0.0306 -0.09135,-0.0183 -0.122125,0.0285 l -0.217766,0.3313 c -0.11125,0.16925 -0.08718,0.31342 0.06125,0.40998 0.101351,0.0659 0.2055,0.0411 0.25994,-0.0417 l 0.03077,-0.0468 1.31454,1.31779 c -0.0047,0.007 -0.0071,0.0108 -0.01184,0.018 -0.104149,0.15845 -0.07282,0.30735 0.06835,0.39918 0.108592,0.0706 0.194782,0.0496 0.270525,-0.0656 z"
         style="font-style:normal;font-variant:normal;font-weight:normal;font-stretch:normal;font-size:medium;line-height:1.25;font-family:'Courier 10 Pitch';-inkscape-font-specification:'Courier 10 Pitch';letter-spacing:0px;word-spacing:0px;fill:#faeb0c;fill-opacity:1;stroke:none;stroke-width:0.16176786"
         id="path2756"
         inkscape:connector-curvature="0" />
    </g>
  </g>
</svg>
