<?xml version="1.0" encoding="UTF-8" standalone="no"?>
<!-- Created with Inkscape (http://www.inkscape.org/) -->

<svg
   xmlns:dc="http://purl.org/dc/elements/1.1/"
   xmlns:cc="http://creativecommons.org/ns#"
   xmlns:rdf="http://www.w3.org/1999/02/22-rdf-syntax-ns#"
   xmlns:svg="http://www.w3.org/2000/svg"
   xmlns="http://www.w3.org/2000/svg"
   xmlns:sodipodi="http://sodipodi.sourceforge.net/DTD/sodipodi-0.dtd"
   xmlns:inkscape="http://www.inkscape.org/namespaces/inkscape"
   width="297mm"
   height="210mm"
   viewBox="0 0 297 210"
   version="1.1"
   id="svg3556"
   inkscape:version="0.92.3 (2405546, 2018-03-11)"
   sodipodi:docname="logo-radresear.ch.svg">
  <defs
     id="defs3550" />
  <sodipodi:namedview
     id="base"
     pagecolor="#ffffff"
     bordercolor="#666666"
     borderopacity="1.0"
     inkscape:pageopacity="0.0"
     inkscape:pageshadow="2"
     inkscape:zoom="0.35"
     inkscape:cx="-108.57143"
     inkscape:cy="560"
     inkscape:document-units="mm"
     inkscape:current-layer="layer1"
     showgrid="false"
     inkscape:window-width="1920"
     inkscape:window-height="1025"
     inkscape:window-x="0"
     inkscape:window-y="27"
     inkscape:window-maximized="1" />
  <metadata
     id="metadata3553">
    <rdf:RDF>
      <cc:Work
         rdf:about="">
        <dc:format>image/svg+xml</dc:format>
        <dc:type
           rdf:resource="http://purl.org/dc/dcmitype/StillImage" />
        <dc:title></dc:title>
      </cc:Work>
    </rdf:RDF>
  </metadata>
  <g
     inkscape:label="Layer 1"
     inkscape:groupmode="layer"
     id="layer1"
     transform="translate(0,-87)">
    <g
       id="g2815"
       transform="matrix(6.885893,0,0,6.885893,-108.81269,-150.13868)">
      <rect
         y="35.857956"
         x="18.213579"
         height="27.613441"
         width="38.15379"
         id="rect1565-8"
         style="fill:#fffcf6;fill-opacity:0.64705882;stroke:none;stroke-width:0.56702965;stroke-linejoin:miter;stroke-miterlimit:4;stroke-dasharray:none;stroke-opacity:1" />
      <path
         d="m 27.79035,52.495838 v -1.672167 c 0.592666,-0.60325 1.047749,-0.910166 1.375833,-0.910166 0.28575,0 0.5715,0.338666 0.994833,0.338666 0.423333,0 0.73025,-0.28575 0.73025,-0.687916 0,-0.497417 -0.402167,-0.846667 -1.100667,-0.846667 -0.814916,0 -1.407583,0.370417 -2.106083,1.121833 v -0.762 c 0,-0.137583 -0.105833,-0.22225 -0.296333,-0.22225 h -1.100667 c -0.433916,0 -0.645583,0.127 -0.645583,0.560917 0,0.433917 0.211667,0.5715 0.645583,0.5715 h 0.22225 v 2.50825 h -0.391583 c -0.433917,0 -0.656167,0.127 -0.656167,0.560916 0,0.433917 0.22225,0.5715 0.656167,0.5715 h 2.88925 c 0.433916,0 0.645583,-0.137583 0.645583,-0.5715 0,-0.433916 -0.211667,-0.560916 -0.645583,-0.560916 z"
         style="font-style:normal;font-variant:normal;font-weight:bold;font-stretch:normal;font-size:medium;line-height:1.25;font-family:'Courier 10 Pitch';-inkscape-font-specification:'Courier 10 Pitch Bold';letter-spacing:0px;word-spacing:0px;fill:#000000;fill-opacity:1;stroke:none;stroke-width:0.26458332"
         id="path1303"
         inkscape:connector-curvature="0" />
      <path
         d="m 47.408542,48.008505 h 0.687917 v 1.312333 c -0.381,-0.306917 -0.878417,-0.47625 -1.418167,-0.47625 -1.344083,0 -2.38125,1.090083 -2.38125,2.497667 0,1.396999 1.04775,2.412999 2.38125,2.412999 0.66675,0 1.195917,-0.254 1.545167,-0.709083 v 0.359833 c 0,0.137584 0.105833,0.22225 0.306917,0.22225 h 0.793749 c 0.433917,0 0.645584,-0.137583 0.645584,-0.5715 0,-0.370416 -0.1905,-0.560916 -0.560917,-0.560916 -0.02117,0 -0.05292,0 -0.08467,0 v -5.291667 c 0,-0.254 -0.0635,-0.338666 -0.306916,-0.338666 h -1.608667 c -0.433916,0 -0.656166,0.137583 -0.656166,0.5715 0,0.433916 0.22225,0.5715 0.656166,0.5715 z m -0.508,4.646083 c -0.677333,0 -1.17475,-0.560917 -1.17475,-1.354667 0,-0.79375 0.508,-1.344083 1.17475,-1.344083 0.66675,0 1.17475,0.550333 1.17475,1.344083 0,0.79375 -0.497416,1.354667 -1.17475,1.354667 z"
         style="font-style:normal;font-variant:normal;font-weight:bold;font-stretch:normal;font-size:medium;line-height:1.25;font-family:'Courier 10 Pitch';-inkscape-font-specification:'Courier 10 Pitch Bold';letter-spacing:0px;word-spacing:0px;fill:#000000;fill-opacity:1;stroke:none;stroke-width:0.26458332"
         id="path1305"
         inkscape:connector-curvature="0" />
      <path
         d="m 27.851734,60.606403 h -0.465667 l 0.1397,-0.626533 c 0.2921,-0.2794 0.529167,-0.397933 0.613834,-0.397933 0.1016,0 0.198966,0.135467 0.397933,0.135467 0.182033,0 0.3048,-0.118534 0.3048,-0.313267 0,-0.186267 -0.127,-0.3048 -0.3556,-0.3048 -0.254,0 -0.579967,0.1524 -0.9271,0.465667 l 0.0635,-0.300567 c 0,-0.0085 0.0042,-0.01693 0.0042,-0.0254 0,-0.05503 -0.03387,-0.08467 -0.0889,-0.08467 h -0.3725 c -0.198967,0 -0.3048,0.09313 -0.3048,0.2667 0,0.118534 0.08043,0.1905 0.1778,0.1905 h 0.05503 l -0.2032,0.994833 c -0.0085,0 -0.0127,0 -0.02117,0 -0.186267,0 -0.2921,0.105834 -0.2921,0.270934 0,0.127 0.0635,0.186266 0.198966,0.186266 h 0.9779 c 0.207434,0 0.313267,-0.09313 0.313267,-0.2667 0,-0.127 -0.06773,-0.1905 -0.2159,-0.1905 z"
         style="font-style:italic;font-variant:normal;font-weight:bold;font-stretch:normal;font-size:4.23333311px;line-height:1.25;font-family:'Courier 10 Pitch';-inkscape-font-specification:'Courier 10 Pitch Bold Italic';letter-spacing:0px;word-spacing:0px;fill:#000000;fill-opacity:1;stroke:none;stroke-width:0.26458332"
         id="path1307"
         inkscape:connector-curvature="0" />
      <path
         d="m 29.687148,59.912137 c 0.08043,-0.254 0.3048,-0.397933 0.605367,-0.397933 0.2667,0 0.427567,0.135466 0.427567,0.338666 0,0.0042 -0.0042,0.0254 -0.0042,0.05927 z m -0.02963,0.3175 h 1.202267 c 0.249766,0 0.385233,-0.02117 0.385233,-0.258233 0,-0.499534 -0.347133,-0.867834 -0.922867,-0.867834 -0.6985,0 -1.2065,0.5207 -1.2065,1.185334 0,0.499533 0.364067,0.825499 0.956734,0.825499 0.579966,0 1.058333,-0.262466 1.058333,-0.4953 0,-0.122766 -0.08043,-0.2032 -0.186267,-0.2032 -0.143933,0 -0.4064,0.275167 -0.817033,0.275167 -0.3048,0 -0.4699,-0.1524 -0.4699,-0.423333 0,-0.0127 0,-0.0254 0,-0.0381 z"
         style="font-style:italic;font-variant:normal;font-weight:bold;font-stretch:normal;font-size:4.23333311px;line-height:1.25;font-family:'Courier 10 Pitch';-inkscape-font-specification:'Courier 10 Pitch Bold Italic';letter-spacing:0px;word-spacing:0px;fill:#000000;fill-opacity:1;stroke:none;stroke-width:0.26458332"
         id="path1309"
         inkscape:connector-curvature="0" />
      <path
         d="m 32.077129,60.987403 c 0.211667,0.08467 0.414867,0.127 0.635,0.127 0.554567,0 0.893234,-0.2794 0.893234,-0.6604 0,-0.351366 -0.2159,-0.482599 -0.656167,-0.605366 -0.237067,-0.0635 -0.410633,-0.08043 -0.410633,-0.2286 0,-0.105833 0.118533,-0.1905 0.3175,-0.1905 0.173566,0 0.3175,0.05927 0.410633,0.156633 0.05503,0.05503 0.09313,0.160867 0.237067,0.160867 0.09313,0 0.1524,-0.05503 0.169333,-0.143933 l 0.06773,-0.313267 c 0.0042,-0.0254 0.0085,-0.04657 0.0085,-0.06773 0,-0.1016 -0.0635,-0.156634 -0.169333,-0.156634 -0.06773,0 -0.131234,0.0381 -0.1651,0.118534 -0.2159,-0.05927 -0.414867,-0.0889 -0.605367,-0.0889 -0.5207,0 -0.8255,0.254 -0.8255,0.613833 0,0.3048 0.194733,0.440267 0.626533,0.5588 0.249767,0.06773 0.4191,0.105833 0.4191,0.270933 0,0.127 -0.135466,0.2286 -0.338666,0.2286 -0.2667,0 -0.4318,-0.0762 -0.503767,-0.237067 -0.0508,-0.1143 -0.0381,-0.182033 -0.182033,-0.182033 -0.118534,0 -0.186267,0.05927 -0.211667,0.182033 l -0.0762,0.385234 c -0.0042,0.02117 -0.0085,0.04233 -0.0085,0.05927 0,0.105834 0.07197,0.160867 0.1778,0.160867 0.08467,0 0.1524,-0.0508 0.1905,-0.148167 z"
         style="font-style:italic;font-variant:normal;font-weight:bold;font-stretch:normal;font-size:4.23333311px;line-height:1.25;font-family:'Courier 10 Pitch';-inkscape-font-specification:'Courier 10 Pitch Bold Italic';letter-spacing:0px;word-spacing:0px;fill:#000000;fill-opacity:1;stroke:none;stroke-width:0.26458332"
         id="path1311"
         inkscape:connector-curvature="0" />
      <path
         d="m 34.780377,59.912137 c 0.08043,-0.254 0.3048,-0.397933 0.605367,-0.397933 0.2667,0 0.427566,0.135466 0.427566,0.338666 0,0.0042 -0.0042,0.0254 -0.0042,0.05927 z m -0.02963,0.3175 h 1.202266 c 0.249767,0 0.385233,-0.02117 0.385233,-0.258233 0,-0.499534 -0.347133,-0.867834 -0.922866,-0.867834 -0.6985,0 -1.2065,0.5207 -1.2065,1.185334 0,0.499533 0.364067,0.825499 0.956733,0.825499 0.579967,0 1.058333,-0.262466 1.058333,-0.4953 0,-0.122766 -0.08043,-0.2032 -0.186266,-0.2032 -0.143933,0 -0.4064,0.275167 -0.817033,0.275167 -0.3048,0 -0.4699,-0.1524 -0.4699,-0.423333 0,-0.0127 0,-0.0254 0,-0.0381 z"
         style="font-style:italic;font-variant:normal;font-weight:bold;font-stretch:normal;font-size:4.23333311px;line-height:1.25;font-family:'Courier 10 Pitch';-inkscape-font-specification:'Courier 10 Pitch Bold Italic';letter-spacing:0px;word-spacing:0px;fill:#000000;fill-opacity:1;stroke:none;stroke-width:0.26458332"
         id="path1313"
         inkscape:connector-curvature="0" />
      <path
         d="m 38.571591,60.606403 0.1651,-0.774699 c 0.01693,-0.08043 0.0254,-0.148167 0.0254,-0.207434 0,-0.3429 -0.237066,-0.529166 -0.694266,-0.529166 -0.605367,0 -0.956733,0.1651 -0.956733,0.414866 0,0.105834 0.05927,0.160867 0.1778,0.160867 0.2032,0 0.427566,-0.2032 0.6985,-0.2032 0.169333,0 0.270933,0.09313 0.270933,0.2413 0,0.0508 -0.0085,0.110067 -0.0254,0.182033 -0.1524,-0.02963 -0.3048,-0.04657 -0.4572,-0.04657 -0.6223,0 -1.011767,0.275166 -1.011767,0.728133 0,0.338666 0.220134,0.537633 0.601134,0.537633 0.186266,0 0.452966,-0.06773 0.728133,-0.224367 0.0127,0.143934 0.0635,0.1778 0.198966,0.1778 h 0.182034 c 0.207433,0 0.313266,-0.09313 0.313266,-0.2667 0,-0.127 -0.07197,-0.1905 -0.2159,-0.1905 z m -0.474133,-0.07197 c -0.2032,0.118533 -0.3937,0.173566 -0.537633,0.173566 -0.182033,0 -0.270933,-0.07197 -0.270933,-0.224366 0,-0.173567 0.194733,-0.313267 0.516466,-0.313267 0.08043,0 0.2032,0.01693 0.359834,0.04233 z"
         style="font-style:italic;font-variant:normal;font-weight:bold;font-stretch:normal;font-size:4.23333311px;line-height:1.25;font-family:'Courier 10 Pitch';-inkscape-font-specification:'Courier 10 Pitch Bold Italic';letter-spacing:0px;word-spacing:0px;fill:#000000;fill-opacity:1;stroke:none;stroke-width:0.26458332"
         id="path1315"
         inkscape:connector-curvature="0" />
      <path
         d="M 40.584806,60.606403 H 40.11914 l 0.1397,-0.626533 c 0.292099,-0.2794 0.529166,-0.397933 0.613833,-0.397933 0.1016,0 0.198966,0.135467 0.397933,0.135467 0.182033,0 0.3048,-0.118534 0.3048,-0.313267 0,-0.186267 -0.127,-0.3048 -0.3556,-0.3048 -0.254,0 -0.579967,0.1524 -0.9271,0.465667 l 0.0635,-0.300567 c 0,-0.0085 0.0042,-0.01693 0.0042,-0.0254 0,-0.05503 -0.03387,-0.08467 -0.0889,-0.08467 h -0.372534 c -0.198966,0 -0.3048,0.09313 -0.3048,0.2667 0,0.118534 0.08043,0.1905 0.1778,0.1905 h 0.05503 l -0.2032,0.994833 c -0.0085,0 -0.0127,0 -0.02117,0 -0.186267,0 -0.2921,0.105834 -0.2921,0.270934 0,0.127 0.0635,0.186266 0.198967,0.186266 h 0.977899 c 0.207434,0 0.313267,-0.09313 0.313267,-0.2667 0,-0.127 -0.06773,-0.1905 -0.2159,-0.1905 z"
         style="font-style:italic;font-variant:normal;font-weight:bold;font-stretch:normal;font-size:4.23333311px;line-height:1.25;font-family:'Courier 10 Pitch';-inkscape-font-specification:'Courier 10 Pitch Bold Italic';letter-spacing:0px;word-spacing:0px;fill:#000000;fill-opacity:1;stroke:none;stroke-width:0.26458332"
         id="path1317"
         inkscape:connector-curvature="0" />
      <path
         d="m 46.860985,59.272904 c -0.148166,-0.1143 -0.342899,-0.169334 -0.584199,-0.169334 -0.762,0 -1.2827,0.524934 -1.2827,1.2065 0,0.491067 0.347133,0.8001 0.960966,0.8001 0.579967,0 1.0541,-0.258233 1.0541,-0.491067 0,-0.122766 -0.08043,-0.2032 -0.186267,-0.2032 -0.143933,0 -0.385233,0.270934 -0.812799,0.270934 -0.2921,0 -0.4699,-0.182034 -0.4699,-0.436033 0,-0.402167 0.283633,-0.7112 0.7239,-0.7112 0.254,0 0.355599,0.0889 0.427566,0.254 0.05503,0.127 0.08043,0.207433 0.211667,0.207433 0.135466,0 0.2159,-0.06773 0.2413,-0.211667 l 0.08467,-0.461433 c 0.0042,-0.0254 0.0085,-0.0508 0.0085,-0.06773 0,-0.118534 -0.05503,-0.160867 -0.182033,-0.160867 -0.105834,0 -0.160867,0.0508 -0.194734,0.173567 z"
         style="font-style:italic;font-variant:normal;font-weight:bold;font-stretch:normal;font-size:4.23333311px;line-height:1.25;font-family:'Courier 10 Pitch';-inkscape-font-specification:'Courier 10 Pitch Bold Italic';letter-spacing:0px;word-spacing:0px;fill:#000000;fill-opacity:1;stroke:none;stroke-width:0.26458332"
         id="path1319"
         inkscape:connector-curvature="0" />
      <path
         d="m 48.230734,60.606403 0.135467,-0.622299 c 0.05927,-0.270934 0.296333,-0.4445 0.486833,-0.4445 0.1524,0 0.211667,0.0762 0.211667,0.237066 0,0.0381 0,0.0762 -0.0085,0.1143 l -0.1524,0.715433 c -0.1778,0.01693 -0.2667,0.110067 -0.2667,0.270934 0,0.122766 0.06773,0.186266 0.186267,0.186266 h 0.491067 c 0.207433,0 0.313266,-0.09313 0.313266,-0.2667 0,-0.127 -0.07197,-0.1905 -0.2159,-0.1905 l 0.156634,-0.736599 c 0.01693,-0.08467 0.0254,-0.1651 0.0254,-0.245534 0,-0.334433 -0.207434,-0.5207 -0.524934,-0.5207 -0.198966,0 -0.4064,0.08043 -0.5715,0.2413 l 0.1905,-0.8763 c 0,-0.0085 0.0042,-0.01693 0.0042,-0.0254 0,-0.05503 -0.03387,-0.08467 -0.0889,-0.08467 h -0.414867 c -0.198967,0 -0.3048,0.09737 -0.3048,0.270933 0,0.118533 0.08043,0.1905 0.1778,0.1905 h 0.05503 l -0.380999,1.786466 c -0.0085,0 -0.0127,0 -0.02117,0 -0.186267,0 -0.2921,0.105834 -0.2921,0.270934 0,0.127 0.06773,0.186266 0.2032,0.186266 h 0.512233 c 0.198967,0 0.3048,-0.09737 0.3048,-0.2667 0,-0.127 -0.06773,-0.1905 -0.211667,-0.1905 z"
         style="font-style:italic;font-variant:normal;font-weight:bold;font-stretch:normal;font-size:4.23333311px;line-height:1.25;font-family:'Courier 10 Pitch';-inkscape-font-specification:'Courier 10 Pitch Bold Italic';letter-spacing:0px;word-spacing:0px;fill:#000000;fill-opacity:1;stroke:none;stroke-width:0.26458332"
         id="path1321"
         inkscape:connector-curvature="0" />
      <path
         d="m 41.930258,60.746083 c 0,0.401293 0.299003,0.684558 0.755374,0.684558 0.464238,0 0.763241,-0.283265 0.763241,-0.684558 0,-0.401292 -0.299003,-0.684557 -0.763241,-0.684557 -0.456371,0 -0.755374,0.283265 -0.755374,0.684557 z"
         style="font-style:italic;font-variant:normal;font-weight:bold;font-stretch:normal;font-size:4.23333311px;line-height:1.25;font-family:'Courier 10 Pitch';-inkscape-font-specification:'Courier 10 Pitch Bold Italic';letter-spacing:0px;word-spacing:0px;fill:#fbb901;fill-opacity:1;stroke:none;stroke-width:0.4917798"
         id="path1323"
         inkscape:connector-curvature="0" />
      <path
         inkscape:transform-center-y="-3.0201143"
         inkscape:transform-center-x="0.098187102"
         d="m 37.918449,39.289227 5.230987,9.400462 5.230987,9.400462 -10.756533,-0.170063 -10.756532,-0.170064 5.525545,-9.230399 z"
         inkscape:randomized="0"
         inkscape:rounded="0"
         inkscape:flatsided="false"
         sodipodi:arg2="-0.50778982"
         sodipodi:arg1="-1.5549874"
         sodipodi:r2="6.2110629"
         sodipodi:r1="12.422126"
         sodipodi:cy="51.709801"
         sodipodi:cx="37.722076"
         sodipodi:sides="3"
         id="path941-2-8-9"
         style="fill:#fbb901;fill-opacity:1;stroke:none;stroke-width:0.29353857;stroke-linejoin:miter;stroke-miterlimit:4;stroke-dasharray:none;stroke-opacity:1"
         sodipodi:type="star" />
    </g>
  </g>
</svg>
