<?xml version="1.0" encoding="UTF-8" standalone="no"?>
<!-- Created with Inkscape (http://www.inkscape.org/) -->

<svg
   xmlns:dc="http://purl.org/dc/elements/1.1/"
   xmlns:cc="http://creativecommons.org/ns#"
   xmlns:rdf="http://www.w3.org/1999/02/22-rdf-syntax-ns#"
   xmlns:svg="http://www.w3.org/2000/svg"
   xmlns="http://www.w3.org/2000/svg"
   xmlns:sodipodi="http://sodipodi.sourceforge.net/DTD/sodipodi-0.dtd"
   xmlns:inkscape="http://www.inkscape.org/namespaces/inkscape"
   width="297mm"
   height="210mm"
   viewBox="0 0 297 210"
   version="1.1"
   id="svg5491"
   inkscape:version="0.92.3 (2405546, 2018-03-11)"
   sodipodi:docname="logo-thenorman.live.svg">
  <defs
     id="defs5485" />
  <sodipodi:namedview
     id="base"
     pagecolor="#ffffff"
     bordercolor="#666666"
     borderopacity="1.0"
     inkscape:pageopacity="0.0"
     inkscape:pageshadow="2"
     inkscape:zoom="0.35"
     inkscape:cx="-108.57143"
     inkscape:cy="560"
     inkscape:document-units="mm"
     inkscape:current-layer="layer1"
     showgrid="false"
     inkscape:window-width="1920"
     inkscape:window-height="1025"
     inkscape:window-x="0"
     inkscape:window-y="27"
     inkscape:window-maximized="1" />
  <metadata
     id="metadata5488">
    <rdf:RDF>
      <cc:Work
         rdf:about="">
        <dc:format>image/svg+xml</dc:format>
        <dc:type
           rdf:resource="http://purl.org/dc/dcmitype/StillImage" />
        <dc:title></dc:title>
      </cc:Work>
    </rdf:RDF>
  </metadata>
  <g
     inkscape:label="Layer 1"
     inkscape:groupmode="layer"
     id="layer1"
     transform="translate(0,-87)">
    <g
       id="g2746"
       transform="matrix(3.4070076,0,0,3.4070076,-29.5791,-443.33142)">
      <rect
         y="173.64078"
         x="11.364619"
         height="27.448122"
         width="81.656418"
         id="rect1565-8-7-8"
         style="fill:#fffcf6;fill-opacity:0.64705882;stroke:none;stroke-width:0.82704312;stroke-linejoin:miter;stroke-miterlimit:4;stroke-dasharray:none;stroke-opacity:1" />
      <path
         d="m 22.302796,185.52172 h -2.032 v -1.04775 c 0,-0.508 -0.04233,-0.71967 -0.41275,-0.71967 -0.275166,0 -0.402166,0.14817 -0.402166,0.43392 0,0.13758 0,0.23283 0,0.27516 v 1.05834 h -0.5715 c -0.497417,0 -0.709084,0.0317 -0.709084,0.37041 0,0.254 0.127,0.35984 0.41275,0.35984 h 0.867834 v 1.72508 c 0,0.0529 0,0.10583 0,0.15875 0,0.47625 0.01058,0.889 0.1905,1.19592 0.296333,0.51858 0.846666,0.77258 1.640416,0.77258 0.486833,0 1.026583,-0.13758 1.672167,-0.39158 0.381,-0.14817 0.5715,-0.29634 0.5715,-0.53975 0,-0.1905 -0.169334,-0.37042 -0.359834,-0.37042 -0.41275,0 -1.100666,0.55033 -1.936749,0.55033 -0.910167,0 -0.973667,-0.55033 -0.973667,-1.37583 v -1.72508 h 2.0955 c 0.28575,0 0.433916,-0.11642 0.433916,-0.35984 0,-0.26458 -0.15875,-0.37041 -0.486833,-0.37041 z"
         style="font-style:normal;font-variant:normal;font-weight:normal;font-stretch:normal;font-size:medium;line-height:1.25;font-family:'Courier 10 Pitch';-inkscape-font-specification:'Courier 10 Pitch';letter-spacing:0px;word-spacing:0px;fill:#000000;fill-opacity:1;stroke:none;stroke-width:0.26458332"
         id="path1405"
         inkscape:connector-curvature="0" />
      <path
         d="m 25.314416,189.2788 c -0.04233,0 -0.07408,0 -0.105834,0 -0.423333,0 -0.60325,0.0635 -0.60325,0.35983 0,0.24342 0.137584,0.37042 0.41275,0.37042 h 1.375834 c 0.306916,0 0.41275,-0.0741 0.41275,-0.37042 0,-0.28575 -0.137584,-0.37041 -0.497417,-0.37041 -0.0635,0 -0.137583,0.0106 -0.22225,0.0106 v -2.14842 c 0,-0.77258 0.719667,-1.23825 1.344083,-1.23825 0.677334,0 1.090084,0.41275 1.090084,1.23825 v 2.14842 c -0.09525,0 -0.148167,0 -0.201084,0 -0.370416,0 -0.508,0.0741 -0.508,0.35983 0,0.29634 0.105834,0.37042 0.41275,0.37042 h 1.375834 c 0.275166,0 0.41275,-0.127 0.41275,-0.37042 0,-0.26458 -0.15875,-0.35983 -0.486834,-0.35983 -0.07408,0 -0.148166,0 -0.22225,0 v -2.33892 c 0,-1.19591 -0.709083,-1.8415 -1.693333,-1.8415 -0.53975,0 -1.016,0.23284 -1.513417,0.6985 v -2.33891 c 0,-0.127 -0.09525,-0.21167 -0.296333,-0.21167 h -0.783167 c -0.275166,0 -0.41275,0.127 -0.41275,0.37042 0,0.26458 0.148167,0.35983 0.47625,0.35983 0.07408,0 0.15875,0.0106 0.232834,0.0106 z"
         style="font-style:normal;font-variant:normal;font-weight:normal;font-stretch:normal;font-size:medium;line-height:1.25;font-family:'Courier 10 Pitch';-inkscape-font-specification:'Courier 10 Pitch';letter-spacing:0px;word-spacing:0px;fill:#000000;fill-opacity:1;stroke:none;stroke-width:0.26458332"
         id="path1407"
         inkscape:connector-curvature="0" />
      <path
         d="m 31.903202,187.17272 c 0.201083,-0.85725 0.867833,-1.36525 1.778,-1.36525 0.836083,0 1.49225,0.53975 1.5875,1.36525 z m -0.02117,0.67733 h 3.471333 c 0.635,0 0.85725,0 0.85725,-0.48683 0,-1.15359 -0.963083,-2.26484 -2.529416,-2.26484 -1.598083,0 -2.69875,1.02659 -2.69875,2.50825 0,1.54517 0.994833,2.52942 2.592916,2.52942 0.6985,0 1.449917,-0.16933 2.159,-0.51858 0.306917,-0.14817 0.455084,-0.30692 0.455084,-0.51859 0,-0.1905 -0.15875,-0.33866 -0.359834,-0.33866 -0.465666,0 -1.132416,0.64558 -2.180166,0.64558 -1.068917,0 -1.7145,-0.56092 -1.767417,-1.55575 z"
         style="font-style:normal;font-variant:normal;font-weight:normal;font-stretch:normal;font-size:medium;line-height:1.25;font-family:'Courier 10 Pitch';-inkscape-font-specification:'Courier 10 Pitch';letter-spacing:0px;word-spacing:0px;fill:#000000;fill-opacity:1;stroke:none;stroke-width:0.26458332"
         id="path1409"
         inkscape:connector-curvature="0" />
      <path
         d="m 38.068656,189.2788 c -0.04233,0 -0.07408,0 -0.105834,0 -0.423333,0 -0.60325,0.0635 -0.60325,0.35983 0,0.24342 0.137584,0.37042 0.433917,0.37042 0.137583,0 0.232833,0 0.275167,0 h 0.941916 c 0.391584,0 0.550334,-0.0212 0.550334,-0.37042 0,-0.28575 -0.137584,-0.37041 -0.497417,-0.37041 -0.0635,0 -0.137583,0.0106 -0.22225,0.0106 v -2.14842 c 0,-0.77258 0.719667,-1.23825 1.344083,-1.23825 0.677334,0 1.058334,0.41275 1.058334,1.23825 v 2.14842 c -0.0635,0 -0.116417,0 -0.169334,0 -0.370416,0 -0.518583,0.0741 -0.518583,0.35983 0,0.33867 0.148167,0.37042 0.518583,0.37042 h 1.143 c 0.370417,0 0.550333,-0.0741 0.550333,-0.37042 0,-0.26458 -0.15875,-0.35983 -0.486833,-0.35983 -0.07408,0 -0.15875,0 -0.232833,0 v -2.33892 c 0,-1.19591 -0.6985,-1.8415 -1.68275,-1.8415 -0.53975,0 -1.016,0.23284 -1.513417,0.6985 v -0.34925 c 0,-0.127 -0.09525,-0.21166 -0.296333,-0.21166 h -0.486833 c -0.47625,0 -0.709084,0 -0.709084,0.35983 0,0.26458 0.148167,0.37042 0.47625,0.37042 0.07408,0 0.15875,0 0.232834,0 z"
         style="font-style:normal;font-variant:normal;font-weight:normal;font-stretch:normal;font-size:medium;line-height:1.25;font-family:'Courier 10 Pitch';-inkscape-font-specification:'Courier 10 Pitch';letter-spacing:0px;word-spacing:0px;fill:#000000;fill-opacity:1;stroke:none;stroke-width:0.26458332"
         id="path1411"
         inkscape:connector-curvature="0" />
      <path
         d="m 49.060107,187.6278 c 0,-1.42875 -1.058333,-2.50825 -2.69875,-2.50825 -1.640416,0 -2.709333,1.06892 -2.709333,2.50825 0,1.43933 1.068917,2.50825 2.709333,2.50825 1.640417,0 2.69875,-1.06892 2.69875,-2.50825 z m -2.69875,1.78858 c -1.068916,0 -1.80975,-0.762 -1.80975,-1.78858 0,-1.02658 0.740834,-1.79917 1.80975,-1.79917 1.068917,0 1.80975,0.77259 1.80975,1.79917 0,1.03717 -0.740833,1.78858 -1.80975,1.78858 z"
         style="font-style:normal;font-variant:normal;font-weight:normal;font-stretch:normal;font-size:medium;line-height:1.25;font-family:'Courier 10 Pitch';-inkscape-font-specification:'Courier 10 Pitch';letter-spacing:0px;word-spacing:0px;fill:#000000;fill-opacity:1;stroke:none;stroke-width:0.26458332"
         id="path1413"
         inkscape:connector-curvature="0" />
      <path
         d="m 52.219893,189.2788 v -2.13783 c 0.687916,-0.78317 1.27,-1.19592 1.8415,-1.19592 0.402166,0 0.624416,0.3175 0.899583,0.3175 0.22225,0 0.455083,-0.23283 0.455083,-0.48683 0,-0.381 -0.381,-0.66675 -1.026583,-0.66675 -0.8255,0 -1.524,0.40216 -2.169583,1.21708 v -0.87842 c 0,-0.14816 -0.09525,-0.21166 -0.28575,-0.21166 h -1.17475 c -0.275167,0 -0.41275,0.11641 -0.41275,0.35983 0,0.26458 0.148166,0.37042 0.486833,0.37042 0.05292,0 0.148167,0 0.264583,0 h 0.34925 v 3.31258 h -0.910166 c -0.28575,0 -0.433917,0.11642 -0.433917,0.35983 0,0.24342 0.148167,0.37042 0.423333,0.37042 h 3.376084 c 0.306916,0 0.423333,-0.0741 0.423333,-0.37042 0,-0.254 -0.127,-0.35983 -0.391583,-0.35983 z"
         style="font-style:normal;font-variant:normal;font-weight:normal;font-stretch:normal;font-size:medium;line-height:1.25;font-family:'Courier 10 Pitch';-inkscape-font-specification:'Courier 10 Pitch';letter-spacing:0px;word-spacing:0px;fill:#000000;fill-opacity:1;stroke:none;stroke-width:0.26458332"
         id="path1415"
         inkscape:connector-curvature="0" />
      <path
         d="m 60.978265,187.13038 v 2.36009 c 0,0.33866 0.148167,0.51858 0.433917,0.51858 h 0.624416 c 0.243417,0 0.370417,-0.127 0.370417,-0.37042 0,-0.29633 -0.148167,-0.35983 -0.53975,-0.35983 -0.03175,0 -0.0635,0 -0.09525,0 v -2.33892 c 0,-1.2065 -0.3175,-1.8415 -1.27,-1.8415 -0.497417,0 -0.867833,0.21167 -1.153583,0.635 -0.148167,-0.42333 -0.465667,-0.635 -0.941917,-0.635 -0.402167,0 -0.719667,0.13759 -0.994833,0.4445 -0.02117,-0.254 -0.07408,-0.30691 -0.296334,-0.30691 h -0.79375 c -0.275166,0 -0.402166,0.11641 -0.402166,0.35983 0,0.26458 0.148166,0.37042 0.47625,0.37042 0.07408,0 0.15875,0 0.232833,0 v 3.31258 c -0.04233,0 -0.07408,0 -0.105833,0 -0.423334,0 -0.60325,0.0635 -0.60325,0.35983 0,0.24342 0.127,0.37042 0.402166,0.37042 h 1.375834 c 0.306916,0 0.423333,-0.0741 0.423333,-0.37042 0,-0.28575 -0.137583,-0.37041 -0.497417,-0.37041 -0.0635,0 -0.137583,0.0106 -0.22225,0.0106 v -2.84692 c 0.1905,-0.35983 0.4445,-0.53975 0.762,-0.53975 0.391584,0 0.677334,0.30692 0.677334,0.83609 0,0.0635 0,0.20108 0,0.40216 v 2.18017 c 0,0.0529 0,0.0952 0,0.13758 0,0.40217 0.02117,0.56092 0.359833,0.56092 h 0.656167 c 0.243416,0 0.359833,-0.127 0.359833,-0.37042 0,-0.29633 -0.148167,-0.35983 -0.53975,-0.35983 -0.03175,0 -0.0635,0 -0.09525,0 v -2.14842 c 0,-0.8255 0.359833,-1.23825 0.836083,-1.23825 0.518584,0 0.560917,0.45509 0.560917,1.23825 z"
         style="font-style:normal;font-variant:normal;font-weight:normal;font-stretch:normal;font-size:medium;line-height:1.25;font-family:'Courier 10 Pitch';-inkscape-font-specification:'Courier 10 Pitch';letter-spacing:0px;word-spacing:0px;fill:#000000;fill-opacity:1;stroke:none;stroke-width:0.26458332"
         id="path1417"
         inkscape:connector-curvature="0" />
      <path
         d="m 76.267871,189.2788 c -0.04233,0 -0.07408,0 -0.105834,0 -0.423333,0 -0.60325,0.0635 -0.60325,0.35983 0,0.24342 0.137584,0.37042 0.433917,0.37042 0.137583,0 0.232833,0 0.275167,0 h 0.941916 c 0.391584,0 0.550334,-0.0212 0.550334,-0.37042 0,-0.28575 -0.137584,-0.37041 -0.497417,-0.37041 -0.0635,0 -0.137583,0.0106 -0.22225,0.0106 v -2.14842 c 0,-0.77258 0.719667,-1.23825 1.344083,-1.23825 0.677333,0 1.058333,0.41275 1.058333,1.23825 v 2.14842 c -0.0635,0 -0.116416,0 -0.169333,0 -0.370417,0 -0.518583,0.0741 -0.518583,0.35983 0,0.33867 0.148166,0.37042 0.518583,0.37042 h 1.143 c 0.370417,0 0.550333,-0.0741 0.550333,-0.37042 0,-0.26458 -0.15875,-0.35983 -0.486833,-0.35983 -0.07408,0 -0.15875,0 -0.232833,0 v -2.33892 c 0,-1.19591 -0.6985,-1.8415 -1.68275,-1.8415 -0.53975,0 -1.016,0.23284 -1.513417,0.6985 v -0.34925 c 0,-0.127 -0.09525,-0.21166 -0.296333,-0.21166 h -0.486833 c -0.47625,0 -0.709084,0 -0.709084,0.35983 0,0.26458 0.148167,0.37042 0.47625,0.37042 0.07408,0 0.15875,0 0.232834,0 z"
         style="font-style:normal;font-variant:normal;font-weight:normal;font-stretch:normal;font-size:medium;line-height:1.25;font-family:'Courier 10 Pitch';-inkscape-font-specification:'Courier 10 Pitch';letter-spacing:0px;word-spacing:0px;fill:#000000;fill-opacity:1;stroke:none;stroke-width:0.26458332"
         id="path1419"
         inkscape:connector-curvature="0" />
      <path
         d="m 51.112393,196.52763 c 0,0.53975 0.402166,0.92075 1.016,0.92075 0.624416,0 1.026583,-0.381 1.026583,-0.92075 0,-0.53975 -0.402167,-0.92075 -1.026583,-0.92075 -0.613834,0 -1.016,0.381 -1.016,0.92075 z"
         style="font-style:italic;font-variant:normal;font-weight:bold;font-stretch:normal;font-size:medium;line-height:1.25;font-family:'Courier 10 Pitch';-inkscape-font-specification:'Courier 10 Pitch Bold Italic';letter-spacing:0px;word-spacing:0px;fill:#000000;fill-opacity:1;stroke:none;stroke-width:0.26458332"
         id="path1421"
         inkscape:connector-curvature="0" />
      <path
         d="m 56.007845,197.32138 h 4.5085 c 0.296334,0 0.41275,-0.10584 0.47625,-0.41275 l 0.264584,-1.25942 c 0.02117,-0.0847 0.03175,-0.15875 0.03175,-0.21167 0,-0.30691 -0.15875,-0.45508 -0.465667,-0.45508 -0.391583,0 -0.5715,0.20108 -0.66675,0.75142 l -0.07408,0.4445 h -2.264834 l 0.79375,-3.84175 h 0.338667 c 0.455083,0 0.73025,-0.24342 0.73025,-0.66675 0,-0.3175 -0.169333,-0.47625 -0.508,-0.47625 h -1.915583 c -0.497417,0 -0.762,0.24341 -0.762,0.67733 0,0.29633 0.1905,0.46567 0.4445,0.46567 h 0.34925 l -0.783167,3.84175 h -0.370417 c -0.34925,0 -0.624416,0.27516 -0.624416,0.67733 0,0.3175 0.15875,0.46567 0.497416,0.46567 z"
         style="font-style:italic;font-variant:normal;font-weight:bold;font-stretch:normal;font-size:medium;line-height:1.25;font-family:'Courier 10 Pitch';-inkscape-font-specification:'Courier 10 Pitch Bold Italic';letter-spacing:0px;word-spacing:0px;fill:#000000;fill-opacity:1;stroke:none;stroke-width:0.26458332"
         id="path1423"
         inkscape:connector-curvature="0" />
      <path
         d="m 63.009382,197.32138 h 2.931583 c 0.497416,0 0.762,-0.24342 0.762,-0.67734 0,-0.29633 -0.1905,-0.46566 -0.4445,-0.46566 h -0.910167 l 0.783167,-3.84175 h 0.529166 c 0.656167,0 0.994834,-0.10584 0.994834,-0.66675 0,-0.3175 -0.15875,-0.47625 -0.497417,-0.47625 h -2.899833 c -0.497417,0 -0.762,0.24341 -0.762,0.67733 0,0.29633 0.1905,0.46567 0.4445,0.46567 h 0.899583 l -0.783167,3.84175 h -0.920749 c -0.34925,0 -0.635,0.27516 -0.635,0.67733 0,0.3175 0.169333,0.46567 0.508,0.46567 z"
         style="font-style:italic;font-variant:normal;font-weight:bold;font-stretch:normal;font-size:medium;line-height:1.25;font-family:'Courier 10 Pitch';-inkscape-font-specification:'Courier 10 Pitch Bold Italic';letter-spacing:0px;word-spacing:0px;fill:#000000;fill-opacity:1;stroke:none;stroke-width:0.26458332"
         id="path1425"
         inkscape:connector-curvature="0" />
      <path
         d="m 71.714835,197.04621 2.614083,-4.70958 h 0.08467 c 0.34925,0 0.635,-0.26459 0.635,-0.66675 0,-0.3175 -0.169333,-0.47625 -0.508,-0.47625 h -1.259416 c -0.497417,0 -0.762,0.254 -0.762,0.67733 0,0.3175 0.179916,0.46567 0.529166,0.46567 h 0.05292 l -1.979083,3.56658 -0.4445,-3.56658 h 0.05292 c 0.455084,0 0.73025,-0.24342 0.73025,-0.66675 0,-0.3175 -0.169333,-0.47625 -0.508,-0.47625 h -1.439333 c -0.497417,0 -0.762,0.24341 -0.762,0.67733 0,0.29633 0.179917,0.46567 0.433917,0.46567 h 0.116416 l 0.687917,4.64608 c 0.03175,0.24342 0.15875,0.33867 0.41275,0.33867 h 0.836083 c 0.264584,0 0.359834,-0.0741 0.47625,-0.27517 z"
         style="font-style:italic;font-variant:normal;font-weight:bold;font-stretch:normal;font-size:medium;line-height:1.25;font-family:'Courier 10 Pitch';-inkscape-font-specification:'Courier 10 Pitch Bold Italic';letter-spacing:0px;word-spacing:0px;fill:#000000;fill-opacity:1;stroke:none;stroke-width:0.26458332"
         id="path1427"
         inkscape:connector-curvature="0" />
      <path
         d="m 80.536704,191.19363 h -4.22275 c -0.497417,0 -0.762,0.24341 -0.762,0.67733 0,0.29633 0.1905,0.46567 0.4445,0.46567 h 0.137583 l -0.79375,3.84175 H 75.19212 c -0.349249,0 -0.634999,0.27516 -0.634999,0.67733 0,0.3175 0.169333,0.46567 0.507999,0.46567 h 4.28625 c 0.296334,0 0.423334,-0.10584 0.486834,-0.41275 l 0.264583,-1.25942 c 0.02117,-0.0847 0.02117,-0.15875 0.02117,-0.21167 0,-0.30691 -0.15875,-0.45508 -0.465667,-0.45508 -0.391583,0 -0.560917,0.20108 -0.656167,0.75142 l -0.08467,0.4445 h -2.25425 l 0.3175,-1.53459 h 0.804333 c -0.02117,0.11642 -0.03175,0.21167 -0.03175,0.30692 0,0.26458 0.148167,0.37042 0.465667,0.37042 0.402166,0 0.486833,-0.1905 0.5715,-0.58209 l 0.232833,-1.12183 c 0.02117,-0.0847 0.03175,-0.17992 0.03175,-0.23283 0,-0.26459 -0.15875,-0.40217 -0.4445,-0.40217 -0.370417,0 -0.518583,0.17992 -0.60325,0.65617 h -0.814917 l 0.254,-1.30175 h 2.275417 l -0.09525,0.45508 c -0.02117,0.11642 -0.03175,0.21167 -0.03175,0.30692 0,0.26458 0.148167,0.37041 0.465667,0.37041 0.402166,0 0.486833,-0.1905 0.5715,-0.58208 l 0.275166,-1.35467 c 0.01058,-0.0212 0.01058,-0.0423 0.01058,-0.0741 0,-0.14817 -0.127,-0.26458 -0.381,-0.26458 z"
         style="font-style:italic;font-variant:normal;font-weight:bold;font-stretch:normal;font-size:medium;line-height:1.25;font-family:'Courier 10 Pitch';-inkscape-font-specification:'Courier 10 Pitch Bold Italic';letter-spacing:0px;word-spacing:0px;fill:#000000;fill-opacity:1;stroke:none;stroke-width:0.26458332"
         id="path1429"
         inkscape:connector-curvature="0" />
      <path
         inkscape:transform-center-y="-2.6503087"
         inkscape:transform-center-x="0.086165876"
         d="m 69.381319,176.89611 4.590468,8.2494 4.590468,8.24941 -9.439427,-0.14924 -9.439426,-0.14924 4.848958,-8.10017 z"
         inkscape:randomized="0"
         inkscape:rounded="0"
         inkscape:flatsided="false"
         sodipodi:arg2="-0.50778982"
         sodipodi:arg1="-1.5549874"
         sodipodi:r2="5.4505367"
         sodipodi:r1="10.901073"
         sodipodi:cy="187.79582"
         sodipodi:cx="69.208992"
         sodipodi:sides="3"
         id="path941-2-8-5"
         style="fill:#030200;fill-opacity:0.64705882;stroke:none;stroke-width:0.25759563;stroke-linejoin:miter;stroke-miterlimit:4;stroke-dasharray:none;stroke-opacity:1"
         sodipodi:type="star" />
    </g>
  </g>
</svg>
