<svg xmlns="http://www.w3.org/2000/svg" width="108" height="26" viewBox="0 0 108 26"><path d="M-5480.124-17.493q-6.407-6.865-8.061-9.177c-.023-.1-.07-.142-.141-.142-.047,0-.106.047-.177.142q-5.7,7.078-6.584,9.283c0,.38-.07.569-.211.569a1.631,1.631,0,0,1-.6-.214,2.738,2.738,0,0,1-.881-.817,2.345,2.345,0,0,1-.457-1.458,4.73,4.73,0,0,1,.7-2.17,67.383,67.383,0,0,1,10.562-12.306,26.32,26.32,0,0,1,4.436-3.272.9.9,0,0,1,.563-.284,1.138,1.138,0,0,1,.634.249.713.713,0,0,1,.388.6.742.742,0,0,1-.281.569,78.939,78.939,0,0,0-6.337,7.008q-.458.5-.458.675a.157.157,0,0,0,.177.178h.141a49.249,49.249,0,0,0,6.83-2.347,29.311,29.311,0,0,0,8.378-5.336,1.589,1.589,0,0,0,.6-1.1q0-.818-1.374-1.244a15.487,15.487,0,0,0-4.295-.427,36.129,36.129,0,0,0-7.182.889,38.191,38.191,0,0,0-8.485,2.88,16.754,16.754,0,0,0-6.266,4.553c-.188.214-.282.367-.282.462,0,.072.128.106.387.106a10.536,10.536,0,0,0,2.394-.889,32.05,32.05,0,0,0,3.486-1.742,8.481,8.481,0,0,1,2.816-1.53c.141,0,.211.036.211.106a2.694,2.694,0,0,1-.457.6,17.527,17.527,0,0,1-1.233,1.352,26.121,26.121,0,0,1-1.936,1.814q-2.64,2.313-4.859,2.312a2.6,2.6,0,0,1-1.936-.747,3.053,3.053,0,0,1-.916-1.566l-.177-.747a3.339,3.339,0,0,1,.845-2.134,20.894,20.894,0,0,1,1.866-1.991,23.717,23.717,0,0,1,2.992-2.277,29.819,29.819,0,0,1,4.261-2.383,26.963,26.963,0,0,1,5.528-1.814A30.268,30.268,0,0,1-5478.75-42a16.371,16.371,0,0,1,6.021,1.173,5.931,5.931,0,0,1,2.464,1.778,3.948,3.948,0,0,1,.986,2.667q0,2.384-2.853,4.767t-9.963,5.3q-.7.178-.7.5a.39.39,0,0,0,.141.249,57.622,57.622,0,0,0,7.523,7.608,4.405,4.405,0,0,1-.469-2.2,7.447,7.447,0,0,1,1.8-4.445,15.546,15.546,0,0,1,4.295-3.877,8.558,8.558,0,0,1,4.365-1.53,2.195,2.195,0,0,1,1.549.675,1.869,1.869,0,0,1,.74,1.317,4.017,4.017,0,0,1-1.655,2.667A16.577,16.577,0,0,1-5468-22.971a7.27,7.27,0,0,1-2.393.889.906.906,0,0,1-.845-.533.625.625,0,0,0-.388-.108q-.247,0-.809.961a3.162,3.162,0,0,0-.564,1.53.657.657,0,0,0,.422.711,13.11,13.11,0,0,0,5.81-1.566,57.392,57.392,0,0,0,6.022-3.724q2.487-1.836,6.432-5.417.528-.71.95-.711a5.94,5.94,0,0,1,1.408.284q.986.249.987.6a17.887,17.887,0,0,1-.388,3.877,14.109,14.109,0,0,1-.809,2.669,8.22,8.22,0,0,0-.388.959.063.063,0,0,0,.07.072.842.842,0,0,0,.282-.108,38.924,38.924,0,0,0,4.338-2.682q.231-.259.473-.518,2.465-2.632,3.521-2.669a1.027,1.027,0,0,1,.7.286.846.846,0,0,1,.317.639c0,.237-.236.594-.7,1.067s-1.068,1.091-1.8,1.85a11.784,11.784,0,0,0-1.515,1.85,2.809,2.809,0,0,0-.422,1q0,.249.282.249a2.517,2.517,0,0,0,1.021-.462q2.007-1.385,4.577-3.414a23.138,23.138,0,0,0,3.345-2.952q.176-.64,1.056-.641,1.69,0,1.689.6,0,.249-1.655,1.85-4.964,4.8-4.964,5.939c0,.119.048.178.142.178a1.634,1.634,0,0,0,.6-.214,94.488,94.488,0,0,0,11.269-7.367q.382-.6.605-.885a.909.909,0,0,1,.669-.355,1.168,1.168,0,0,1,.774.427,1.1,1.1,0,0,1,.458.817,1.715,1.715,0,0,1-.282.89,13.32,13.32,0,0,1-1.866,2.809.307.307,0,0,0-.106.213.063.063,0,0,0,.072.072l.1-.036,4.717-3.308a7.547,7.547,0,0,1,2.148-1.245,1.378,1.378,0,0,1,.738.25q.423.213.422.5a1.073,1.073,0,0,1-.175.569l-2.289,3.166a3.054,3.054,0,0,0-.457.639c0,.048.011.072.034.072l.177-.106q4.4-3.023,5.949-4.2a23.144,23.144,0,0,0,1.9-1.5,1.53,1.53,0,0,1,.81-.355.961.961,0,0,1,.458.07l.774.6a.529.529,0,0,1,.352.462.714.714,0,0,1-.142.462q-2.077,2.276-3.344,3.628-1.232,1.352-1.8,1.992a5.9,5.9,0,0,0-1.126,1.778,1.848,1.848,0,0,0-.282.889c0,.214.13.32.388.32a4.27,4.27,0,0,0,1.479-.5,16.923,16.923,0,0,0,2.569-1.53q1.514-1.031,3.979-2.916,1.224-.941,2.3-1.736a15.234,15.234,0,0,1,3.076-2.461,8.559,8.559,0,0,1,4.365-1.53,2.2,2.2,0,0,1,1.549.675,1.87,1.87,0,0,1,.74,1.317,4.017,4.017,0,0,1-1.655,2.667,16.577,16.577,0,0,1-3.486,2.383,7.27,7.27,0,0,1-2.394.889.905.905,0,0,1-.845-.533.621.621,0,0,0-.387-.108q-.246,0-.81.961a3.158,3.158,0,0,0-.563,1.53.657.657,0,0,0,.422.711,13.11,13.11,0,0,0,5.81-1.566,73.309,73.309,0,0,0,8.66-5.583l1.163-.855c.539-.378.856-.6.95-.675a.745.745,0,0,1,.317.6.847.847,0,0,1-.317.641,49.335,49.335,0,0,1-4.577,3.983,45.735,45.735,0,0,1-6.407,4.2,13.372,13.372,0,0,1-5.914,1.956q-2.711,0-2.711-3.344a5.45,5.45,0,0,1,.246-1.585q-1.382,1.162-3.294,2.652-3.521,2.775-4.929,2.775-2.711,0-2.71-2.917a4.07,4.07,0,0,1,.845-2.311l1.513-2.1a1.948,1.948,0,0,0,.211-.355c0-.047-.071-.012-.211.106a66.677,66.677,0,0,1-7.815,6.047,1.293,1.293,0,0,1-.7.178q-1.162,0-1.161-1.067a1.2,1.2,0,0,1,.175-.641,27.45,27.45,0,0,1,3.133-4.019l.6-.6a.206.206,0,0,0,.07-.142.063.063,0,0,0-.07-.072c-.047,0-.118.048-.211.142l-3.768,2.988q-3.274,2.6-3.591,2.775a1.166,1.166,0,0,1-.527.142,1.938,1.938,0,0,1-.774-.284c-.352-.214-.529-.45-.529-.711a.6.6,0,0,1,.106-.284,59.1,59.1,0,0,0,4.51-5.544q-.565.5-1.353,1.169-1.83,1.563-3.414,2.845-4.154,3.378-6.127,3.983a5.048,5.048,0,0,1-1.373.178q-1.2,0-1.2-1.884a3.5,3.5,0,0,1,.317-1.175c.233-.52.363-.817.387-.889.047-.094.082-.166.1-.213a.426.426,0,0,1,.07-.108.3.3,0,0,0,.036-.142c0-.047-.071-.07-.211-.07q-.176,0-1.161.959-.986.926-1.655,1.5a9.215,9.215,0,0,1-1.479,1.066,2.743,2.743,0,0,1-1.338.5q-1.408,0-1.408-1.316a4.757,4.757,0,0,1,.527-1.92q.2-.417.422-.833a37.525,37.525,0,0,1-4.211,2.932,8.266,8.266,0,0,1-3.768,1.458q-3.309,0-3.309-4.019a.785.785,0,0,1,.247-.569.948.948,0,0,1,.7-.286,1.626,1.626,0,0,0,.175.57,4.58,4.58,0,0,0,.422.6,2.55,2.55,0,0,0,1.831.6,2.822,2.822,0,0,0,2.254-1.494,10.187,10.187,0,0,0,1.478-3.059,10.1,10.1,0,0,0,.422-2.489c0-.167-.128-.25-.387-.25a1.47,1.47,0,0,0-.845.392l-1.968,1.532q-1.293,1.151-2.953,2.451a45.735,45.735,0,0,1-6.407,4.2,13.374,13.374,0,0,1-5.915,1.956,3.092,3.092,0,0,1-1.2-.214.579.579,0,0,1,.059.25q0,.783-2.289.783A5.2,5.2,0,0,1-5480.124-17.493Zm74.308-8.786Q-5408-24.395-5408-23.967c0,.047.035.07.1.07q.775,0,3.063-1.742,2.322-1.744,2.324-2.383c0-.119-.072-.178-.211-.178Q-5403.633-28.2-5405.815-26.279Zm-62.675,0q-2.183,1.884-2.183,2.312c0,.047.035.07.1.07q.774,0,3.063-1.742,2.323-1.744,2.323-2.383,0-.178-.211-.178Q-5466.308-28.2-5468.491-26.279Zm67.684,8.892a2.725,2.725,0,0,1,1.267-2.063,3.7,3.7,0,0,1,2.078-1.033.562.562,0,0,1,.458.142,1.772,1.772,0,0,1,.492,1,1.051,1.051,0,0,1-.211.641c-.141.166-.317.367-.527.6a6,6,0,0,1-1.2.889,3.046,3.046,0,0,1-1.725.6A.7.7,0,0,1-5400.807-17.387Z" transform="translate(5501 42)" fill="#2c2921"/></svg>